<svg xmlns="http://www.w3.org/2000/svg" width="205" height="64" viewBox="0 0 205 64">
    <defs>
        <style>
            .cls-1{fill:#fff}
        </style>
    </defs>
    <g id="Group_3572" transform="translate(-491 -5557)">
        <rect id="Rectangle_2397" width="205" height="64" rx="10" transform="translate(491 5557)"/>
        <g id="Group_3548" transform="translate(1.664 4662)">
            <g id="Website" transform="translate(491.883 894.919)">
                <g id="Home-Page" transform="translate(12.453 9.986)">
                    <g id="Top-Section">
                        <g id="Text">
                            <g id="Download">
                                <g id="Group">
                                    <g id="_Group_">
                                        <g id="_Group_2">
                                            <g id="_Group_3">
                                                <path id="_Path_" d="M27.725 19.324a8.987 8.987 0 0 1 4.28-7.54 9.2 9.2 0 0 0-7.248-3.918c-3.05-.32-6.006 1.825-7.56 1.825-1.584 0-3.977-1.793-6.553-1.74A9.653 9.653 0 0 0 2.52 12.9c-3.512 6.081-.892 15.018 2.472 19.933 1.683 2.407 3.651 5.1 6.225 5 2.519-.1 3.46-1.606 6.5-1.606 3.012 0 3.9 1.606 6.521 1.546 2.7-.044 4.406-2.418 6.03-4.847a19.908 19.908 0 0 0 2.758-5.616 8.685 8.685 0 0 1-5.301-7.986z" class="cls-1" transform="translate(-.853 1.706)"/>
                                                <path id="_Path_2" d="M19.588 6.525A8.849 8.849 0 0 0 21.612.186 9 9 0 0 0 15.787 3.2a8.42 8.42 0 0 0-2.077 6.1 7.444 7.444 0 0 0 5.878-2.775z" class="cls-1" transform="translate(2.324 -.186)"/>
                                            </g>
                                        </g>
                                        <g id="Group-2" transform="translate(43.341 17.506)">
                                            <path id="Shape" d="M14.35 16.334H6.084L4.1 22.2H.6L8.427.509h3.638l7.83 21.691h-3.561zm-7.41-2.7h6.552l-3.23-9.513h-.09z" class="cls-1" transform="translate(-.597 -.148)"/>
                                            <path id="Shape-2" d="M32.577 13.159c0 4.913-2.63 8.07-6.6 8.07A5.36 5.36 0 0 1 21 18.463h-.075v7.831h-3.242V5.253h3.141v2.63h.06a5.609 5.609 0 0 1 5.034-2.8c4.014.004 6.659 3.176 6.659 8.076zm-3.336 0c0-3.2-1.654-5.306-4.178-5.306-2.48 0-4.148 2.149-4.148 5.306 0 3.186 1.668 5.319 4.148 5.319 2.524 0 4.178-2.089 4.178-5.319z" class="cls-1" transform="translate(3.63 .984)"/>
                                            <path id="Shape-3" d="M46.529 13.159c0 4.913-2.631 8.07-6.6 8.07a5.36 5.36 0 0 1-4.975-2.766h-.075v7.831h-3.245V5.253h3.141v2.63h.06a5.609 5.609 0 0 1 5.035-2.8c4.013.004 6.659 3.176 6.659 8.076zm-3.337 0c0-3.2-1.654-5.306-4.178-5.306-2.48 0-4.148 2.149-4.148 5.306 0 3.186 1.668 5.319 4.148 5.319 2.524 0 4.178-2.089 4.178-5.319z" class="cls-1" transform="translate(7.082 .984)"/>
                                            <path id="Path" d="M53.452 16.225c.24 2.151 2.33 3.563 5.185 3.563 2.736 0 4.7-1.412 4.7-3.351 0-1.683-1.187-2.691-4-3.382l-2.811-.677C52.55 11.416 50.7 9.553 50.7 6.531c0-3.741 3.262-6.312 7.891-6.312 4.584 0 7.726 2.57 7.831 6.312h-3.276c-.2-2.164-1.985-3.471-4.6-3.471s-4.4 1.322-4.4 3.245c0 1.533 1.143 2.435 3.938 3.126l2.389.587c4.45 1.052 6.3 2.84 6.3 6.012 0 4.057-3.23 6.6-8.37 6.6-4.809 0-8.057-2.481-8.266-6.4z" class="cls-1" transform="translate(11.658 -.219)"/>
                                            <path id="Path-2" d="M70.187 2.22v3.741h3.007v2.57h-3.007v8.717c0 1.354.6 1.985 1.924 1.985a10.142 10.142 0 0 0 1.068-.075v2.555a8.912 8.912 0 0 1-1.8.15c-3.2 0-4.45-1.2-4.45-4.269V8.532h-2.3V5.961h2.3V2.22z" class="cls-1" transform="translate(15.245 .275)"/>
                                            <path id="Shape-4" d="M72.89 13.164c0-4.975 2.93-8.1 7.5-8.1 4.584 0 7.5 3.126 7.5 8.1s-2.9 8.1-7.5 8.1-7.5-3.111-7.5-8.1zm11.693 0c0-3.413-1.564-5.427-4.194-5.427s-4.194 2.029-4.194 5.427c0 3.426 1.564 5.425 4.194 5.425s4.194-2 4.194-5.425z" class="cls-1" transform="translate(17.289 .979)"/>
                                            <path id="Path-3" d="M87.059 5.253h3.1v2.691h.075a3.771 3.771 0 0 1 3.8-2.857 5.005 5.005 0 0 1 1.112.121v3.036a4.537 4.537 0 0 0-1.458-.2 3.27 3.27 0 0 0-3.388 3.642v9.378h-3.241z" class="cls-1" transform="translate(20.795 .984)"/>
                                            <path id="Shape-5" d="M108.366 16.425c-.437 2.87-3.232 4.84-6.808 4.84-4.6 0-7.455-3.082-7.455-8.026 0-4.959 2.87-8.176 7.318-8.176 4.374 0 7.125 3.005 7.125 7.8v1.112H97.379v.2a4.118 4.118 0 0 0 4.253 4.479 3.577 3.577 0 0 0 3.651-2.224zm-10.972-4.719h7.9a3.8 3.8 0 0 0-3.878-4.013 4 4 0 0 0-4.027 4.013z" class="cls-1" transform="translate(22.538 .979)"/>
                                        </g>
                                    </g>
                                </g>
                                <g id="Group-3" transform="translate(45.514 1.031)">
                                    <path id="Shape-6" d="M4.7 1.026A4.61 4.61 0 0 1 9.606 6.2c0 3.329-1.8 5.243-4.9 5.243H.939V1.026zM2.558 9.972h1.964a3.276 3.276 0 0 0 3.437-3.747A3.285 3.285 0 0 0 4.522 2.5H2.558z" class="cls-1" transform="translate(-.939 -.512)"/>
                                    <path id="Shape-7" d="M9.356 7.031a3.725 3.725 0 1 1 7.417 0 3.726 3.726 0 1 1-7.417 0zm5.821 0c0-1.7-.766-2.7-2.11-2.7s-2.108 1-2.108 2.7.759 2.707 2.108 2.707 2.11-1 2.11-2.707z" class="cls-1" transform="translate(1.139 -.033)"/>
                                    <path id="Path-4" d="M24.936 10.937h-1.61L21.7 5.145h-.123l-1.618 5.792h-1.594L16.2 3.073h1.574l1.409 6h.117l1.617-6H22.4l1.617 6h.123l1.4-6h1.552z" class="cls-1" transform="translate(2.836 -.003)"/>
                                    <path id="Path-5" d="M26.395 3.1h1.494v1.254H28a2.354 2.354 0 0 1 2.347-1.4 2.558 2.558 0 0 1 2.722 2.925v5.091h-1.547v-4.7c0-1.264-.549-1.892-1.7-1.892a1.8 1.8 0 0 0-1.878 1.993v4.6h-1.549z" class="cls-1" transform="translate(5.359 -.035)"/>
                                    <path id="Path-6" d="M33.731.612h1.552v10.933h-1.552z" class="cls-1" transform="translate(7.174 -.612)"/>
                                    <path id="Shape-8" d="M36.708 7.031a3.726 3.726 0 1 1 7.418 0 3.726 3.726 0 1 1-7.418 0zm5.821 0c0-1.7-.766-2.7-2.11-2.7s-2.108 1-2.108 2.7.759 2.707 2.108 2.707 2.11-1 2.11-2.707z" class="cls-1" transform="translate(7.906 -.033)"/>
                                    <path id="Shape-9" d="M43.961 8.743c0-1.416 1.054-2.232 2.925-2.348l2.13-.123v-.678c0-.831-.549-1.3-1.61-1.3-.866 0-1.467.318-1.639.874h-1.5c.159-1.351 1.429-2.217 3.213-2.217 1.972 0 3.083.981 3.083 2.643v5.373h-1.496V9.862h-.123a2.646 2.646 0 0 1-2.361 1.238 2.376 2.376 0 0 1-2.621-2.353zm5.055-.672v-.658l-1.92.123c-1.083.072-1.574.441-1.574 1.134s.614 1.12 1.458 1.12a1.854 1.854 0 0 0 2.036-1.719z" class="cls-1" transform="translate(9.705 -.033)"/>
                                    <path id="Shape-10" d="M50.887 7.61c0-2.485 1.277-4.059 3.264-4.059a2.592 2.592 0 0 1 2.412 1.38h.116V.612h1.552v10.933h-1.487V10.3h-.123a2.729 2.729 0 0 1-2.469 1.372c-2.001.003-3.265-1.572-3.265-4.062zm1.6 0c0 1.668.786 2.672 2.1 2.672s2.116-1.018 2.116-2.665-.817-2.672-2.116-2.672-2.1 1.01-2.1 2.665z" class="cls-1" transform="translate(11.419 -.612)"/>
                                    <path id="Shape-11" d="M61.925 7.031a3.725 3.725 0 1 1 7.417 0 3.726 3.726 0 1 1-7.417 0zm5.821 0c0-1.7-.766-2.7-2.11-2.7s-2.108 1-2.108 2.7.759 2.707 2.108 2.707 2.11-.995 2.11-2.707z" class="cls-1" transform="translate(14.146 -.033)"/>
                                    <path id="Path-7" d="M69.537 3.1h1.494v1.254h.116a2.354 2.354 0 0 1 2.347-1.4 2.558 2.558 0 0 1 2.722 2.925v5.091h-1.552v-4.7c0-1.264-.549-1.892-1.7-1.892a1.8 1.8 0 0 0-1.878 1.993v4.6h-1.549z" class="cls-1" transform="translate(16.033 -.035)"/>
                                    <path id="Path-8" d="M82.477 1.5v2h1.7v1.3h-1.7v4.048c0 .824.339 1.184 1.112 1.184a5.181 5.181 0 0 0 .592-.032v1.293a5.092 5.092 0 0 1-.844.079c-1.726 0-2.413-.607-2.413-2.123V4.8h-1.249V3.5h1.248v-2z" class="cls-1" transform="translate(18.541 -.391)"/>
                                    <path id="Path-9" d="M84.986.612h1.538v4.333h.123a2.42 2.42 0 0 1 2.4-1.409 2.591 2.591 0 0 1 2.708 2.932v5.077H90.2V6.851c0-1.256-.585-1.892-1.682-1.892a1.837 1.837 0 0 0-1.98 1.994v4.593h-1.551z" class="cls-1" transform="translate(19.856 -.612)"/>
                                    <path id="Shape-12" d="M99.069 8.843a3.192 3.192 0 0 1-3.408 2.275 3.572 3.572 0 0 1-3.632-4.058 3.627 3.627 0 0 1 3.626-4.108c2.188 0 3.508 1.495 3.508 3.964v.542H93.61v.087A2.079 2.079 0 0 0 95.7 9.8a1.885 1.885 0 0 0 1.871-.953zM93.61 6.309h3.972a1.9 1.9 0 0 0-1.936-2.037 2.011 2.011 0 0 0-2.036 2.037z" class="cls-1" transform="translate(21.59 -.033)"/>
                                </g>
                            </g>
                        </g>
                    </g>
                </g>
            </g>
        </g>
    </g>
</svg>
