<svg xmlns="http://www.w3.org/2000/svg" width="205" height="64" viewBox="0 0 205 64">
    <defs>
        <linearGradient id="linear-gradient" x1=".295" x2=".551" y1="-.061" y2=".922" gradientUnits="objectBoundingBox">
            <stop offset="0" stop-color="#006884"/>
            <stop offset="1" stop-color="#8ad1d0"/>
        </linearGradient>
        <linearGradient id="linear-gradient-2" x1="-.075" x2=".915" y1=".158" y2=".863" gradientUnits="objectBoundingBox">
            <stop offset="0" stop-color="#24bbb6"/>
            <stop offset="1" stop-color="#dbe692"/>
        </linearGradient>
        <linearGradient id="linear-gradient-3" x1=".499" x2=".499" y1="1.058" y2="-.031" gradientUnits="objectBoundingBox">
            <stop offset="0" stop-color="#fcc072"/>
            <stop offset="1" stop-color="#f58a5b"/>
        </linearGradient>
        <linearGradient id="linear-gradient-4" x1=".111" x2=".904" y1="1.178" y2=".121" gradientUnits="objectBoundingBox">
            <stop offset="0" stop-color="#712b8f"/>
            <stop offset="1" stop-color="#ea1d27"/>
        </linearGradient>
        <style>
            .cls-5{fill-rule:evenodd}.cls-5,.cls-6{fill:#fff}
        </style>
    </defs>
    <g id="Group_3571" transform="translate(-704 -5557)">
        <rect id="Rectangle_2396" width="205" height="64" rx="10" transform="translate(704 5557)"/>
        <g id="google-play-badge" transform="translate(518.5 5538.5)">
            <path id="Path_3777" fill="url(#linear-gradient)" fill-rule="evenodd" d="M195.3 45.06v-16.8a1.752 1.752 0 0 1 1.6-1.76 2.389 2.389 0 0 1 1.6.48l30.88 16.96a1.333 1.333 0 0 1 0 2.56L198.5 63.46a3.143 3.143 0 0 1-1.6.48 1.752 1.752 0 0 1-1.6-1.76z" transform="translate(5.88 4.8)"/>
            <path id="Path_3778" fill="url(#linear-gradient-2)" fill-rule="evenodd" d="M214.82 45.22L196.1 26.5h.32a2.389 2.389 0 0 1 1.6.48l22.72 12.48z" transform="translate(6.36 4.8)"/>
            <path id="Path_3779" fill="url(#linear-gradient-3)" fill-rule="evenodd" d="M213.56 46.08l-5.76-5.76 5.92-5.92 8.16 4.48a1.333 1.333 0 0 1 0 2.56z" transform="translate(13.38 9.54)"/>
            <path id="Path_3780" fill="url(#linear-gradient-4)" fill-rule="evenodd" d="M196.2 56.66l18.56-18.56 5.76 5.76-22.56 12.32a2.574 2.574 0 0 1-1.76.48z" transform="translate(6.42 11.76)"/>
            <path id="Path_3781" d="M276.175 61.94a7.662 7.662 0 0 1-1.76-2.4l2.56-1.12a14.754 14.754 0 0 0 .8 1.28 3.95 3.95 0 0 0 2.56 1.28 3.663 3.663 0 0 0 2.72-1.28 4.959 4.959 0 0 0 .8-2.72v-.96c-1.92 2.4-5.92 2.08-8.16-.48a7.088 7.088 0 0 1 0-9.44c2.4-2.4 5.92-2.72 8-.48V44.5h2.72v12c0 3.04-1.12 4.8-2.56 5.92a5.905 5.905 0 0 1-3.68 1.12 7.342 7.342 0 0 1-4-1.6zm67.04.64l2.72-6.4-4.8-11.04h2.72l3.36 7.84 3.36-7.84h2.72l-7.36 17.44h-2.72zm-12.96-6.08a4.224 4.224 0 0 1-1.12-3.04 3.634 3.634 0 0 1 .96-2.56 6.171 6.171 0 0 1 4.48-1.6 5.479 5.479 0 0 1 2.88.64 2.718 2.718 0 0 0-2.88-2.72 2.957 2.957 0 0 0-2.72 1.76l-2.4-.96a5.081 5.081 0 0 1 4.96-3.2 5.427 5.427 0 0 1 4.16 1.6 5.9 5.9 0 0 1 1.28 4.16v6.72h-2.72v-1.12a4.983 4.983 0 0 1-1.44 1.12 5.11 5.11 0 0 1-2.24.48 6.178 6.178 0 0 1-3.2-1.28zm-85.28-5.76a6.643 6.643 0 0 1 6.72-6.72 6.749 6.749 0 0 1 6.72 6.72 6.72 6.72 0 0 1-13.44 0zm14.4 0a6.643 6.643 0 0 1 6.72-6.72 6.749 6.749 0 0 1 6.72 6.72 6.643 6.643 0 0 1-6.72 6.72 6.749 6.749 0 0 1-6.72-6.72zM226.9 54.26a10.53 10.53 0 0 1 .16-14.72 10.158 10.158 0 0 1 7.36-3.04 9.927 9.927 0 0 1 7.04 2.88l-1.92 2.08a7.148 7.148 0 0 0-10.24.16 7.73 7.73 0 0 0 0 10.72 7.256 7.256 0 0 0 10.56.16 5.757 5.757 0 0 0 1.44-3.52h-6.72V46.1h9.44a9.839 9.839 0 0 1 .16 2.24 9.216 9.216 0 0 1-2.56 6.4 9.81 9.81 0 0 1-6.88 2.72 11.881 11.881 0 0 1-7.84-3.2zm67.68 1.12a7.3 7.3 0 0 1 0-9.6 5.819 5.819 0 0 1 8.64 0 9.484 9.484 0 0 1 1.76 3.04l-8.8 3.68a3.413 3.413 0 0 0 3.2 2.08 3.624 3.624 0 0 0 3.36-1.92l2.4 1.6a4.242 4.242 0 0 0-.8.96c-2.72 2.72-7.36 2.72-9.76.16zm16.64 1.92V39.54h5.76c3.36 0 6.08 2.4 6.08 5.28a5.362 5.362 0 0 1-5.44 5.28h-3.52v7.04h-2.88zm13.44 0V39.54h2.72V57.3zm-36.16-.32V37.14h2.88v19.84h-2.88zm48.8-4.96a4.362 4.362 0 0 0-2.56-.64c-1.92 0-3.04.96-3.04 2.08a2.012 2.012 0 0 0 2.24 1.76 3.344 3.344 0 0 0 3.36-3.2zm-81.92-1.28a3.693 3.693 0 1 0-3.68 4 3.892 3.892 0 0 0 3.68-4zm14.4 0a3.693 3.693 0 1 0-3.68 4 3.785 3.785 0 0 0 3.68-4zm14.24 1.12a.588.588 0 0 1 .16-.48v-1.44c0-.16-.16-.48-.16-.64a3.712 3.712 0 0 0-3.36-2.72c-1.92 0-3.52 1.92-3.52 4a3.8 3.8 0 0 0 3.68 4c1.28.16 2.56-.96 3.2-2.72zm11.68-1.44l5.92-2.56a2.67 2.67 0 0 0-2.4-1.44c-2.4.16-3.84 2.72-3.52 4zm24.48-5.44a2.785 2.785 0 0 0-3.04-2.72h-3.2v5.6h3.36a2.868 2.868 0 0 0 2.875-2.88z" class="cls-5" transform="translate(23.085 10.8)"/>
            <path id="Path_3782" d="M299.86 50.86h-.16v-.16.16h.16z" class="cls-5" transform="translate(68.52 19.32)"/>
            <path id="Path_3783" d="M299.8 50.86zm0-.16z" class="cls-5" transform="translate(68.58 19.32)"/>
            <path id="Path_3784" d="M299.8 50.86v-.16.16z" class="cls-5" transform="translate(68.58 19.32)"/>
            <path id="Path_3785" d="M299.8 50.86zm0-.16z" class="cls-5" transform="translate(68.58 19.32)"/>
            <path id="Path_3786" d="M299.8 50.7v.16-.16z" class="cls-5" transform="translate(68.58 19.32)"/>
            <path id="Path_3787" d="M299.8 50.86v-.16.16z" class="cls-5" transform="translate(68.58 19.32)"/>
            <path id="Path_3788" d="M299.8 50.845zm0 0z" class="cls-5" transform="translate(68.58 19.335)"/>
            <path id="Path_3789" d="M299.9 50.86zm0-.16zm0 .16z" class="cls-5" transform="translate(68.64 19.32)"/>
            <path id="Path_3790" d="M299.9 50.7v.16z" class="cls-5" transform="translate(68.64 19.32)"/>
            <path id="Path_3791" d="M299.9 50.86v-.16.16z" class="cls-5" transform="translate(68.64 19.32)"/>
            <path id="Path_3792" d="M299.9 50.86zm0-.16z" class="cls-5" transform="translate(68.64 19.32)"/>
            <path id="Path_3794" d="M300.045 50.86zm0-.16c0 .16-.16.16 0 0z" class="cls-5" transform="translate(68.655 19.32)"/>
            <path id="Path_3795" d="M300 50.86v-.16.16-.16.16-.16z" class="cls-5" transform="translate(68.7 19.32)"/>
            <path id="Path_3796" d="M300 50.86zm0-.16z" class="cls-5" transform="translate(68.7 19.32)"/>
            <path id="Path_3798" d="M300.16 50.7v.16-.16z" class="cls-5" transform="translate(68.7 19.32)"/>
            <path id="Path_3799" d="M300.1 50.86v-.16.16z" class="cls-5" transform="translate(68.76 19.32)"/>
            <path id="Path_3800" d="M300.1 50.86zm0-.16z" class="cls-5" transform="translate(68.76 19.32)"/>
            <path id="Path_3801" d="M224.4 30.34a4.451 4.451 0 0 1 4.64-4.64 4.253 4.253 0 0 1 3.68 1.92l-1.28.8a2.89 2.89 0 0 0-2.4-1.12 2.985 2.985 0 0 0-3.04 3.2 2.985 2.985 0 0 0 3.04 3.2 3.154 3.154 0 0 0 2.08-.8v-1.44h-2.56v-1.44h4.32v3.36a4.683 4.683 0 0 1-3.68 1.6 4.584 4.584 0 0 1-4.8-4.64z" class="cls-6" transform="translate(23.34 4.32)"/>
            <path id="Path_3802" d="M230.9 34.76V25.8h6.08v1.44h-4.64v2.24h4.48v1.44h-4.48v2.56h4.64v1.44l-6.08-.16z" class="cls-6" transform="translate(27.24 4.38)"/>
            <path id="Path_3803" d="M238.52 34.76v-7.52h-2.72V25.8h7.04v1.44h-2.72v7.52z" class="cls-6" transform="translate(30.18 4.38)"/>
            <path id="Path_3804" d="M243.6 34.76V25.8h1.6v8.96z" class="cls-6" transform="translate(34.86 4.38)"/>
            <path id="Path_3805" d="M248.32 34.76v-7.52h-2.72V25.8h7.04v1.44h-2.72v7.52z" class="cls-6" transform="translate(36.06 4.38)"/>
            <path id="Path_3806" d="M253.2 30.34a4.64 4.64 0 1 1 9.28 0 4.453 4.453 0 0 1-4.64 4.64 4.544 4.544 0 0 1-4.64-4.64zm7.52 0a2.9 2.9 0 0 0-3.04-3.2 3.076 3.076 0 0 0-3.04 3.2 2.9 2.9 0 0 0 3.04 3.2 2.982 2.982 0 0 0 3.04-3.2z" class="cls-6" transform="translate(40.62 4.32)"/>
            <path id="Path_3807" d="M266.34 34.76l-4.64-6.4v6.4h-1.6V25.8h1.6l4.64 6.24V25.8h1.6v8.96z" class="cls-6" transform="translate(44.76 4.38)"/>
        </g>
    </g>
</svg>
