<svg xmlns="http://www.w3.org/2000/svg" width="459.697" height="307.704" viewBox="0 0 459.697 307.704">
    <defs>
        <linearGradient id="linear-gradient" x1=".5" x2=".5" y2="1" gradientUnits="objectBoundingBox">
            <stop offset="0" stop-color="#fff"/>
            <stop offset=".591" stop-color="#fff" stop-opacity=".694"/>
            <stop offset="1" stop-color="#fff" stop-opacity="0"/>
        </linearGradient>
        <linearGradient id="linear-gradient-3" x1=".5" x2=".5" y1="-.991" y2=".09" gradientUnits="objectBoundingBox">
            <stop offset="0" stop-color="#b8a7d3"/>
            <stop offset=".401" stop-color="#ed4861"/>
            <stop offset=".501" stop-color="#f4837d"/>
            <stop offset=".591" stop-color="#feceaa"/>
            <stop offset="1" stop-color="#b7d5ea"/>
        </linearGradient>
        <clipPath id="clip-path">
            <path id="Rectangle_2358" fill="#fff" d="M0 0H303.755V292.536H0z"/>
        </clipPath>
        <style>
            .cls-4{fill:url(#linear-gradient)}.cls-5{fill:#bfe7d1}.cls-6{fill:#ffe8c4}.cls-8,.cls-9{fill:none;stroke-linecap:round;stroke-width:4px}.cls-8{stroke:#b8c1fc}.cls-9{stroke:#f9d5ff}.cls-10,.cls-17{fill:#2b2b2b}.cls-11{fill:url(#linear-gradient-3)}.cls-12{fill:#f59546}.cls-13{fill:#be6361}.cls-15{fill:#53301a}.cls-17{stroke:#2b2b2b;stroke-width:.777px}.cls-18{fill:#9dfdb6}
        </style>
    </defs>
    <g id="Group_3544" transform="translate(-469 -180.064)">
        <g id="Mask_Group_32" clip-path="url(#clip-path)" transform="translate(624.942 195.232)">
            <g id="Group_3483" transform="translate(-39.099 -.031)">
                <g id="Group_3482">
                    <g id="Layer_2">
                        <g id="Layer_1">
                            <path id="Path_3809" fill="#bed1ed" d="M338.51 40.306v-1.031h-.042L338.461 0H0v288.287h338.51l-.01-41.587h.007v-1.032h-.007l-.007-40.259h.014v-1.033h-.007l-.007-40.208h.021v-1.032h-.021l-.007-40.257h.028v-1.032h-.028l-.007-40.257h.035v-1.027h-.035l-.007-40.257zm-1.079-39.175v38.144h-40.205V1.131zm-41.235 0v38.144h-41.529V1.131zM169.059 122.884h42.02v40.257h-42.02zm-1.03 40.257H126.01v-40.257h42.02zm1.03-41.289V81.6h42.02v40.257zm-1.03 0H126.01V81.6h42.02zm-43.049 0H82.91V81.6h42.069zm0 1.032v40.257H82.91v-40.257zm0 41.289v40.208H82.91v-40.208zm1.03 0h42.02v40.208h-42.02zm43.049 0h42.02v40.208h-42.02zm43.049 0h41.53v40.208h-41.53zm0-1.032v-40.257h41.53v40.257zm0-41.289V81.6h41.53v40.257zm0-41.289V40.306h41.53v40.257zm-1.03 0h-42.02V40.306h42.02zm-43.049 0H126.01V40.306h42.02zm-43.049 0H82.91V40.306h42.069zm-43.1 0H39.862V40.306h42.02zm0 1.032v40.257H39.862V81.6zm0 41.289v40.257H39.862v-40.257zm0 41.289v40.208H39.862v-40.208zm0 41.24v40.257H39.862v-40.257zm1.03 0h42.07v40.257H82.91zm43.1 0h42.02v40.257h-42.02zm43.049 0h42.02v40.257h-42.02zm43.049 0h41.53v40.257h-41.53zm42.559 0H296.2v40.257h-41.533zm0-1.033v-40.207H296.2v40.208zm0-41.24v-40.256H296.2v40.257zm0-41.289V81.6H296.2v40.257zm0-41.289V40.306H296.2v40.257zm-1.03-79.432v38.145h-41.53V1.131zm-42.559 0v38.145h-42.02V1.131zm-43.049 0v38.145H126.01V1.131zm-43.049 0v38.145H82.91V1.131zm-43.1 0v38.145H39.862V1.131zm-80.8 0h37.753v38.145H1.079zm0 39.176h37.753v40.257H1.079zm0 41.289h37.753v40.257H1.079zm0 41.289h37.753v40.257H1.079zm0 41.289h37.753v40.208H1.079zm0 41.24h37.753v40.257H1.079zm0 81.792V246.7h37.753v40.5zm38.783 0V246.7h42.02v40.5zm43.049 0V246.7h42.068v40.5zm43.1 0V246.7h42.02v40.5zm43.049 0V246.7h42.02v40.5zm43.049 0V246.7h41.53v40.5zm42.559 0V246.7H296.2v40.5zm82.766 0h-40.209V246.7h40.206zm0-41.534h-40.209v-40.258h40.206zm0-41.289h-40.209v-40.208h40.206zm0-41.24h-40.209v-40.258h40.206zm0-41.289h-40.209V81.6h40.206zm0-41.289h-40.209V40.306h40.206z"/>
                        </g>
                    </g>
                </g>
            </g>
        </g>
        <path id="Rectangle_2356" d="M0 0H366.749V140.659H0z" class="cls-4" transform="rotate(180 464.349 243.884)"/>
        <rect id="Rectangle_2381" width="18.122" height="18.122" class="cls-5" rx="3" transform="translate(894.611 328.987)"/>
        <rect id="Rectangle_2379" width="18.122" height="18.122" class="cls-5" rx="3" transform="translate(809.611 328.987)"/>
        <rect id="Rectangle_2374" width="18.122" height="18.122" class="cls-6" rx="3" transform="translate(852.759 246.145)"/>
        <rect id="Rectangle_2382" width="18.122" height="18.122" class="cls-6" rx="3" transform="translate(809.759 246.145)"/>
        <rect id="Rectangle_2380" width="18.122" height="18.122" class="cls-5" rx="3" transform="translate(852.759 328.987)"/>
        <rect id="Rectangle_2363" width="18.122" height="18.122" class="cls-6" rx="3" transform="translate(723.317 246.145)"/>
        <rect id="Rectangle_2365" width="18.122" height="18.122" fill="#fbe7b0" rx="3" transform="translate(637.887 246.145)"/>
        <g id="Group_3530" transform="translate(725.253 290.975)">
            <path id="Path_3852" d="M-8485.434 450.274l14.131 14.13" class="cls-8" transform="translate(8485.434 -450.274)"/>
            <path id="Path_3853" d="M0 0l14.131 14.13" class="cls-8" transform="rotate(-90 7.066 7.066)"/>
        </g>
        <g id="Group_3528" transform="translate(681.896 208.133)">
            <path id="Path_3852-2" d="M-8485.434 450.274l14.131 14.13" class="cls-9" transform="translate(8485.434 -450.274)"/>
            <path id="Path_3853-2" d="M0 0l14.131 14.13" class="cls-9" transform="rotate(-90 7.066 7.066)"/>
        </g>
        <g id="Group_3531" transform="translate(681.896 290.975)">
            <path id="Path_3852-3" d="M-8485.434 450.274l14.131 14.13" class="cls-8" transform="translate(8485.434 -450.274)"/>
            <path id="Path_3853-3" d="M0 0l14.131 14.13" class="cls-8" transform="rotate(-90 7.066 7.066)"/>
        </g>
        <g id="Group_3526" transform="translate(639.612 208.133)">
            <path id="Path_3852-4" d="M-8485.434 450.274l14.131 14.13" class="cls-9" transform="translate(8485.434 -450.274)"/>
            <path id="Path_3853-4" d="M0 0l14.131 14.13" class="cls-9" transform="rotate(-90 7.066 7.066)"/>
        </g>
        <g id="Group_3529" transform="translate(639.612 290.975)">
            <path id="Path_3852-5" d="M-8485.434 450.274l14.131 14.13" class="cls-8" transform="translate(8485.434 -450.274)"/>
            <path id="Path_3853-5" d="M0 0l14.131 14.13" class="cls-8" transform="rotate(-90 7.066 7.066)"/>
        </g>
        <g id="Group_3523" transform="translate(811.547 208.133)">
            <path id="Path_3852-6" d="M-8485.434 450.274l14.131 14.13" class="cls-9" transform="translate(8485.434 -450.274)"/>
            <path id="Path_3853-6" d="M0 0l14.131 14.13" class="cls-9" transform="rotate(-90 7.066 7.066)"/>
        </g>
        <g id="Group_3533" transform="translate(811.547 290.975)">
            <path id="Path_3852-7" d="M-8485.434 450.274l14.131 14.13" class="cls-8" transform="translate(8485.434 -450.274)"/>
            <path id="Path_3853-7" d="M0 0l14.131 14.13" class="cls-8" transform="rotate(-90 7.066 7.066)"/>
        </g>
        <g id="Group_3527" transform="translate(768.19 208.133)">
            <path id="Path_3852-8" d="M-8485.434 450.274l14.131 14.13" class="cls-9" transform="translate(8485.434 -450.274)"/>
            <path id="Path_3853-8" d="M0 0l14.131 14.13" class="cls-9" transform="rotate(-90 7.066 7.066)"/>
        </g>
        <g id="Group_3532" transform="translate(768.19 290.975)">
            <path id="Path_3852-9" d="M-8485.434 450.274l14.131 14.13" class="cls-8" transform="translate(8485.434 -450.274)"/>
            <path id="Path_3853-9" d="M0 0l14.131 14.13" class="cls-8" transform="rotate(-90 7.066 7.066)"/>
        </g>
        <g id="Group_3525" transform="translate(896.978 208.133)">
            <path id="Path_3852-10" d="M-8485.434 450.274l14.131 14.13" class="cls-9" transform="translate(8485.434 -450.274)"/>
            <path id="Path_3853-10" d="M0 0l14.131 14.13" class="cls-9" transform="rotate(-90 7.066 7.066)"/>
        </g>
        <g id="Group_3535" transform="translate(896.978 290.975)">
            <path id="Path_3852-11" d="M-8485.434 450.274l14.131 14.13" class="cls-8" transform="translate(8485.434 -450.274)"/>
            <path id="Path_3853-11" d="M0 0l14.131 14.13" class="cls-8" transform="rotate(-90 7.066 7.066)"/>
        </g>
        <path id="Rectangle_2383" d="M0 0H272.749V87.659H0z" class="cls-4" transform="rotate(-90 538.403 -85.59)"/>
        <g id="Group_3134" transform="translate(469 248.823)">
            <g id="Group_2231" transform="translate(0 43.801)">
                <g id="Group_2230" transform="translate(0 1)">
                    <g id="Layer_2-2">
                        <g id="Layer_1-2">
                            <path id="Path_2461" d="M67.372 59.583a11.694 11.694 0 0 1-1.507-5.225 5.556 5.556 0 0 0-5.526-5.414H2.818a2.812 2.812 0 0 0-.69 5.54l27.566 6.8 6.344 11.96 35.982-5.731z" class="cls-10" transform="translate(0 -23.723)"/>
                            <path id="Path_2462" d="M183.336 27.424a10.786 10.786 0 0 1-.061-5.477 5.5 5.5 0 0 0-3.895-6.675L123.869.106a2.8 2.8 0 0 0-2.069 5.161l24.8 13.849 2.2 12.967 36.609 2.9z" class="cls-10" transform="translate(-58.318)"/>
                            <path id="Path_2463" d="M254.271 172.37a38 38 0 0 0 .942 7.05l-60.413-2.329-15.067-89.7-2.2-13.28-6.217-37.011 36.5 3.659 3.873 17.871 4.333 16.366 13.313 49.855 28.509-2.266a35.8 35.8 0 0 0-3.391 7.805c-1.256 8.372-2.072 16.24-1.445 24.613.318 5.847 1.012 11.575 1.263 17.367z" class="cls-11" transform="translate(-83.036 -17.98)"/>
                            <path id="Path_2464" d="M414.993 202.026l-6.593-23.665a17.639 17.639 0 1 1 33.6-10.764.808.808 0 0 1 .061.378l6.156 22.095z" class="cls-12" transform="translate(-197.54 -75.272)"/>
                            <path id="Path_2465" d="M455.206 222.777l4.584 16.178 50.049 10.386a11.906 11.906 0 0 1-1.758 23.668l-60.786.252c-6.719.441-20.094-3.081-22.669-9.317l-.5-1.259-2.135-27.953z" class="cls-13" transform="translate(-204.534 -107.978)"/>
                            <path id="Path_2466" fill="#b7d5ea" d="M300.721 202.4c-21.6-6.735-41.822 6.987-21.6 41.986 8.478 14.667 29.953 15.926 29.953 15.926z" transform="translate(-131.244 -97.297)"/>
                            <path id="Path_2467" d="M205.381 192.215l-.942.251a89.318 89.318 0 0 1-19.152 2.14l-33.909-.062h-30.143a17.063 17.063 0 0 1-16.012-11.144c-1.193-3.21-2.637-6.924-4.207-11.016-1.946-5.036-4.144-10.638-6.4-16.555-6.468-16.618-14.066-35.5-19.97-50.484-2.2-5.54-4.207-10.513-5.84-14.605C65.85 83.378 57.622 66.7 57.622 66.7l36.192-6.58 15.112 28.42 7.661 13.093 20.156 34.624 61.163 1.259z" class="cls-11" transform="translate(-27.929 -29.138)"/>
                            <path id="Path_2468" d="M391.052 144.25a34.323 34.323 0 0 1 3.391 3.9c2.637 3.9 2.7 4.784 8.98 13.974 8.1 11.96-3.391 26.627-16.578 29.586-4.4 1.007-6.97 2.958-8.415 5.916-8.289 17.311-19.529 22.347-26.625 26.879a43.609 43.609 0 0 1-14.82 5.793l-7.974-57.912c10.926-7.176 16.327-22.913 29.514-30.026 8.916-4.908 26.184-5.097 32.527 1.89z" class="cls-12" transform="translate(-159.469 -67.286)"/>
                            <path id="Path_2469" d="M402.771 252.163l1.665 3.456 52.713 6.545c-.277 12.177-73.3 23.243-73.3 23.243a6.572 6.572 0 0 1-2.509-.515 15.565 15.565 0 0 1-9.479-14.1v-1.109c0-.142 0-.284-.013-.426l-.99-15.766a6.758 6.758 0 0 1 7.453-7.154l19.1 2.044a6.752 6.752 0 0 1 5.36 3.782z" class="cls-10" transform="translate(-179.744 -119.377)"/>
                            <path id="Path_2470" d="M423.863 157l-1.57-3.525a11.841 11.841 0 0 1 3.14-13.66l22.92-13.783 6.531 19.7-15.954 13.91a9.213 9.213 0 0 1-13.048.327l-.013-.012a9.82 9.82 0 0 1-2.006-2.957z" class="cls-13" transform="translate(-204.212 -61.085)"/>
                            <path id="Path_2471" d="M453.3 155.1l4.27 15.8 10.864-9.442z" class="cls-10" transform="translate(-219.713 -75.175)"/>
                            <path id="Path_2472" d="M467.661 123.993h-.251a24.893 24.893 0 0 1-26-23.747v-.046l-.313-6.861a19.385 19.385 0 0 1 18.391-20.325l.133-.006h.879a19.5 19.5 0 0 1 19.469 18.632l.123 3.462.188 4.343.439 10.2a13.593 13.593 0 0 1-12.8 14.339z" class="cls-13" transform="translate(-213.787 -35.386)"/>
                            <path id="Path_2473" d="M515.537 120.106a2.232 2.232 0 0 1-1.822-2.576 2.071 2.071 0 0 1 1.633-1.762z" class="cls-10" transform="translate(-248.978 -56.11)"/>
                            <path id="Path_2474" d="M506.5 126.208a.549.549 0 0 1-.565-.315.642.642 0 0 1 .123-.9.7.7 0 0 1 .068-.045l1.695-1.133a.771.771 0 0 0 .251-.566.617.617 0 0 0-.251-.567l-2.889-3.21a.668.668 0 1 1 .984-.905l.022.024 2.889 3.21a2.131 2.131 0 0 1 .565 1.574 2.266 2.266 0 0 1-.691 1.511l-.123.062-1.7 1.133a.884.884 0 0 1-.378.127z" class="cls-10" transform="translate(-244.651 -57.364)"/>
                            <path id="Path_2475" d="M501.26 144.673a4.816 4.816 0 0 1-3.2-1.385.669.669 0 0 1 .855-1.028l.025.021a3.358 3.358 0 0 0 2.828 1.007 3.321 3.321 0 0 0 1.758-1.385.647.647 0 1 1 1.173.545.664.664 0 0 1-.045.082 4.326 4.326 0 0 1-2.7 2.077 2.557 2.557 0 0 1-.694.066z" class="cls-10" transform="translate(-241.294 -68.59)"/>
                            <ellipse id="Ellipse_766" cx="2.198" cy="2.203" class="cls-10" rx="2.198" ry="2.203" transform="translate(252.116 60.22)"/>
                            <path id="Path_2476" d="M357.712 201.549l-2.386-29.963a17.461 17.461 0 1 1 34.914-.756v.315l.565 28.074z" class="cls-12" transform="translate(-172.221 -74.5)"/>
                            <path id="Path_2477" d="M393.175 242.03v15.3l57 3.84a11.6 11.6 0 0 1 1.13 23.1H372.39a15.592 15.592 0 0 1-10.8-14.605v-1.322l-1.507-23.983z" class="cls-13" transform="translate(-174.529 -117.31)"/>
                            <path id="Path_2478" d="M239.013 198.157h-35.042l-6.531-11.96a.647.647 0 1 1 1.13-.629l6.154 11.2h34.16a.7.7 0 0 1 .691.693.64.64 0 0 1-.562.696z" class="cls-10" transform="translate(-95.658 -89.782)"/>
                            <path id="Path_2479" d="M447.041 211.3a.641.641 0 0 0-.864.282c-.006.01-.01.022-.015.033-3.012 6.3-8.791 14.352-19.152 16.87l-2.828.566a.8.8 0 0 0 .062.378v1.009h.123l2.951-.629c10.864-2.707 16.892-11.079 20.094-17.625a.759.759 0 0 0-.371-.884z" class="cls-10" transform="translate(-205.596 -102.383)"/>
                            <path id="Path_2480" d="M423.607 239.829a.659.659 0 0 1-.69-.627.613.613 0 0 1 0-.065l-.566-29.837a.66.66 0 0 1 .626-.692.564.564 0 0 1 .065 0 .66.66 0 0 1 .69.626v.066l.566 29.837a.66.66 0 0 1-.626.693.589.589 0 0 1-.065-.001z" class="cls-10" transform="translate(-204.71 -101.11)"/>
                            <path id="Path_2481" d="M414.378 272.134a.738.738 0 0 1-.691-.567.623.623 0 0 1 .565-.756l4.71-.692a.668.668 0 0 1 .189 1.323l-4.707.692z" class="cls-10" transform="translate(-200.504 -130.922)"/>
                            <path id="Path_2482" d="M533.831 301.077c-.291 0-.584-.01-.879-.031a.618.618 0 0 1 .089-1.233 10.839 10.839 0 0 0 1.563-21.621.617.617 0 0 1 .056-1.233h.033a12.072 12.072 0 0 1-.861 24.111z" class="cls-10" transform="translate(-258.04 -134.24)"/>
                            <ellipse id="Ellipse_767" cx="14.516" cy="14.551" class="cls-15" rx="14.516" ry="14.551" transform="translate(206.486 21.02)"/>
                            <ellipse id="Ellipse_768" cx="12.241" cy="12.27" rx="12.241" ry="12.27" transform="translate(222.64 36.027)"/>
                            <path id="Path_2483" d="M467.892 91.056v-.123A21.7 21.7 0 0 0 446.1 69.325h-.7c-12.025 0-22.316 9.732-22.316 21.789l-6.759 38.186h5.145c10 0 16.592-3.767 20.639-15.183.116-.29 2.082-7.474 3.758-13.5A30.666 30.666 0 0 1 454.6 86.3l4.914-4.52 8.381 9.272z" class="cls-15" transform="translate(-201.789 -33.601)"/>
                        </g>
                    </g>
                </g>
            </g>
            <g id="Group_2233" transform="translate(254.047)">
                <g id="Group_2232">
                    <g id="Layer_2-3">
                        <g id="Layer_1-3">
                            <path id="Path_2485" d="M65.377 400.81a7.761 7.761 0 0 1 15.522 0z" class="cls-10" transform="translate(-32.561 -190.268)"/>
                            <path id="Path_2486" d="M84.07 402.183a5.756 5.756 0 0 1 11.512 0z" class="cls-10" transform="translate(-40.166 -191.641)"/>
                            <path id="Path_2487" d="M55.277 402.183a5.756 5.756 0 0 1 11.512 0z" class="cls-10" transform="translate(-28.453 -191.641)"/>
                            <ellipse id="Ellipse_769" cx="40.452" cy="40.391" fill="#6bb572" rx="40.452" ry="40.391"/>
                            <path id="Path_2484" d="M78.076 269.583a.451.451 0 0 1-.45-.445V127.654a.443.443 0 0 1 .221-.4.456.456 0 0 1 .459 0 .443.443 0 0 1 .221.4v141.484a.481.481 0 0 1-.451.445z" class="cls-17" transform="translate(-37.624 -61.651)"/>
                            <path id="Path_2488" d="M78.076 213.737a.466.466 0 0 1-.328-.123.445.445 0 0 1 0-.614l16.681-16.656a.434.434 0 1 1 .615.614l-16.681 16.656a.441.441 0 0 1-.287.123z" class="cls-17" transform="translate(-37.624 -95.101)"/>
                            <path id="Path_2489" d="M66.822 181.885a.466.466 0 0 1-.328-.123l-11.967-11.95a.434.434 0 0 1 .615-.614l11.967 11.952a.444.444 0 0 1 0 .614.866.866 0 0 1-.287.121z" class="cls-17" transform="translate(-26.37 -81.951)"/>
                            <ellipse id="Ellipse_770" cx="2.664" cy="2.66" class="cls-18" rx="2.664" ry="2.66" transform="translate(54.469 53.159)"/>
                            <ellipse id="Ellipse_771" cx="2.664" cy="2.66" class="cls-18" rx="2.664" ry="2.66" transform="translate(50.739 66.009)"/>
                            <ellipse id="Ellipse_772" cx="2.664" cy="2.66" class="cls-18" rx="2.664" ry="2.66" transform="translate(31.804 30.037)"/>
                            <ellipse id="Ellipse_773" cx="2.664" cy="2.66" class="cls-18" rx="2.664" ry="2.66" transform="translate(32.501 56.637)"/>
                            <ellipse id="Ellipse_774" cx="2.664" cy="2.66" class="cls-18" rx="2.664" ry="2.66" transform="translate(25.821 42.519)"/>
                            <ellipse id="Ellipse_775" cx="2.664" cy="2.66" class="cls-18" rx="2.664" ry="2.66" transform="translate(66.518 51.645)"/>
                            <ellipse id="Ellipse_776" cx="2.664" cy="2.66" class="cls-18" rx="2.664" ry="2.66" transform="translate(46.927 32.738)"/>
                        </g>
                    </g>
                </g>
            </g>
        </g>
    </g>
</svg>
