<svg xmlns="http://www.w3.org/2000/svg" width="420.172" height="191" viewBox="0 0 420.172 191">
    <defs>
        <style>
            .cls-1{fill:#4d5560}.cls-2{fill:#f7bf0f}.cls-3{fill:#9c5cff}.cls-4{fill:#fd4ec7}.cls-5{fill:#07dfe0}.cls-6{fill:#eef3fb}
        </style>
    </defs>
    <g id="Group_598" transform="translate(-278 -1912)">
        <g id="Group_590" transform="translate(30 -80)">
            <g id="Group_589">
                <path id="Path_347" d="M10.98-1.2L7.92-5.48a3.665 3.665 0 0 0 3.18-3.84 3.885 3.885 0 0 0-4.18-4.02H2.44a.8.8 0 0 0-.88.88V-.74a.828.828 0 0 0 .84.82.837.837 0 0 0 .82-.82V-5.3h2.94L9.64-.26a.853.853 0 0 0 .7.34.808.808 0 0 0 .8-.76.842.842 0 0 0-.16-.52zM3.22-11.86h3.5a2.48 2.48 0 0 1 2.66 2.54 2.5 2.5 0 0 1-2.66 2.56h-3.5zm9.28 7.02A4.79 4.79 0 0 0 17.42.24 5.476 5.476 0 0 0 20.86-.9a.625.625 0 0 0 .26-.5.606.606 0 0 0-.62-.6.657.657 0 0 0-.34.08 4.169 4.169 0 0 1-2.6.92 3.4 3.4 0 0 1-3.48-3.34h6.94c.56 0 .88-.28.88-.76a4.578 4.578 0 0 0-4.64-4.8 4.831 4.831 0 0 0-4.76 5.06zm4.74-3.82a3.131 3.131 0 0 1 3.18 3.22h-6.34a3.223 3.223 0 0 1 3.16-3.22zM28.12-9.9a5.009 5.009 0 0 0-3.48 1.26.653.653 0 0 0-.26.5.623.623 0 0 0 .62.62.788.788 0 0 0 .4-.12 3.562 3.562 0 0 1 2.52-.96c1.4 0 2.44.74 2.44 2.04v1.74a4.039 4.039 0 0 0-3.2-1.32 3.164 3.164 0 0 0-3.38 3.18 3.217 3.217 0 0 0 3.38 3.2 4.09 4.09 0 0 0 3.2-1.34v.44a.751.751 0 0 0 .74.74.756.756 0 0 0 .76-.74v-5.98c0-2.34-1.7-3.26-3.74-3.26zM27.7-.84a2.165 2.165 0 0 1-2.38-2.1 2.168 2.168 0 0 1 2.38-2.12 3.235 3.235 0 0 1 2.66 1.2v1.82a3.235 3.235 0 0 1-2.66 1.2zm14.9-12.58a.751.751 0 0 0-.74.74v4.5A4.033 4.033 0 0 0 38.6-9.9c-2.54 0-4.3 2-4.3 5.08 0 3.14 1.78 5.06 4.3 5.06a4.067 4.067 0 0 0 3.26-1.68v.78a.751.751 0 0 0 .74.74.756.756 0 0 0 .76-.74v-12.02a.756.756 0 0 0-.76-.74zM38.96-1.1c-1.94 0-3.1-1.58-3.1-3.72s1.16-3.74 3.1-3.74A3.626 3.626 0 0 1 41.86-7v4.38a3.593 3.593 0 0 1-2.9 1.52z" class="cls-1" transform="translate(280 2011)"/>
                <rect id="_1" width="16" height="16" class="cls-2" rx="8" transform="translate(248 1995)"/>
            </g>
            <g id="Group_588" transform="translate(0 -4)">
                <path id="Path_348" d="M12.68.08a1.117 1.117 0 0 0 1.1-.84l3.28-11.52a1.17 1.17 0 0 0 .04-.26.875.875 0 0 0-.88-.88.876.876 0 0 0-.84.66l-2.8 10.54-2.9-10.56a.859.859 0 0 0-.84-.64.865.865 0 0 0-.86.64L5.08-2.22 2.26-12.76a.876.876 0 0 0-.84-.66.888.888 0 0 0-.88.88 1.171 1.171 0 0 0 .04.26L3.86-.76a1.141 1.141 0 0 0 1.12.84A1.136 1.136 0 0 0 6.1-.78l2.72-9.98 2.74 9.98a1.12 1.12 0 0 0 1.12.86zm9.9.16a4.756 4.756 0 0 0 4.78-5.08 4.739 4.739 0 0 0-4.78-5.06 4.739 4.739 0 0 0-4.78 5.06A4.756 4.756 0 0 0 22.58.24zm0-1.34c-2.06 0-3.22-1.76-3.22-3.74 0-1.96 1.16-3.72 3.22-3.72s3.2 1.76 3.2 3.72c0 1.98-1.14 3.74-3.2 3.74zm11.36-8.72a1.584 1.584 0 0 0-.48.1A4.26 4.26 0 0 0 31.3-8.1V-9a.756.756 0 0 0-.76-.74.751.751 0 0 0-.74.74v8.34a.756.756 0 0 0 .76.74.751.751 0 0 0 .74-.74v-6.18a3.54 3.54 0 0 1 2.5-1.52c.52-.06.82-.38.82-.74a.672.672 0 0 0-.68-.72zm10.28 8.64l-3.6-4.06 3.46-3.32a.738.738 0 0 0 .2-.48.692.692 0 0 0-.68-.7.631.631 0 0 0-.48.18L37.9-4.5v-8.18a.751.751 0 0 0-.74-.74.756.756 0 0 0-.76.74V-.66a.751.751 0 0 0 .74.74.756.756 0 0 0 .76-.74V-2.8l1.64-1.52 3.54 4.16a.729.729 0 0 0 .58.24.743.743 0 0 0 .74-.76.808.808 0 0 0-.18-.5zM50.44.24a4.756 4.756 0 0 0 4.78-5.08 4.739 4.739 0 0 0-4.78-5.06 4.739 4.739 0 0 0-4.78 5.06A4.756 4.756 0 0 0 50.44.24zm0-1.34c-2.06 0-3.22-1.76-3.22-3.74 0-1.96 1.16-3.72 3.22-3.72s3.2 1.76 3.2 3.72c0 1.98-1.14 3.74-3.2 3.74zm14.48-8.64a.751.751 0 0 0-.74.74v6.44a3.7 3.7 0 0 1-2.86 1.46c-1.3 0-2.16-.5-2.16-2.2V-9a.751.751 0 0 0-.74-.74.756.756 0 0 0-.76.74v6.16c0 2.1 1.06 3.08 3.08 3.08a4.748 4.748 0 0 0 3.44-1.58v.68a.756.756 0 0 0 .76.74.751.751 0 0 0 .74-.74V-9a.756.756 0 0 0-.76-.74zm7.3 8.46c-.2 0-.34.18-.76.18-.66 0-.98-.52-.98-1.24v-6h1.38a.683.683 0 0 0 .68-.66.683.683 0 0 0-.68-.66h-1.38v-1.98a.751.751 0 0 0-.74-.74.756.756 0 0 0-.76.74v1.98h-1.02a.666.666 0 0 0-.66.66.666.666 0 0 0 .66.66h1.02v6.32A1.976 1.976 0 0 0 71.12.24a2.576 2.576 0 0 0 1.36-.32.566.566 0 0 0 .38-.56.609.609 0 0 0-.64-.64z" class="cls-1" transform="translate(280 2070)"/>
                <rect id="_2" width="16" height="16" class="cls-3" rx="8" transform="translate(248 2054)"/>
            </g>
            <g id="Group_586" transform="translate(0 -15)">
                <path id="Path_350" d="M.7-.86a4.166 4.166 0 0 0 3 1.1 3.921 3.921 0 0 0 4.24-4.26v-8.58a.841.841 0 0 0-.84-.82.824.824 0 0 0-.82.82v8.56a2.584 2.584 0 0 1-2.68 2.8 2.754 2.754 0 0 1-2-.84.82.82 0 0 0-.44-.14.764.764 0 0 0-.78.76.705.705 0 0 0 .32.6zM15.22.24A4.756 4.756 0 0 0 20-4.84a4.739 4.739 0 0 0-4.78-5.06 4.739 4.739 0 0 0-4.78 5.06A4.756 4.756 0 0 0 15.22.24zm0-1.34C13.16-1.1 12-2.86 12-4.84c0-1.96 1.16-3.72 3.22-3.72s3.2 1.76 3.2 3.72c0 1.98-1.14 3.74-3.2 3.74zM29.7-9.74a.751.751 0 0 0-.74.74v6.44A3.7 3.7 0 0 1 26.1-1.1c-1.3 0-2.16-.5-2.16-2.2V-9a.751.751 0 0 0-.74-.74.756.756 0 0 0-.76.74v6.16c0 2.1 1.06 3.08 3.08 3.08a4.748 4.748 0 0 0 3.44-1.58v.68a.756.756 0 0 0 .76.74.751.751 0 0 0 .74-.74V-9a.756.756 0 0 0-.76-.74zm7.9-.08a1.584 1.584 0 0 0-.48.1 4.26 4.26 0 0 0-2.16 1.62V-9a.756.756 0 0 0-.76-.74.751.751 0 0 0-.74.74v8.34a.756.756 0 0 0 .76.74.751.751 0 0 0 .74-.74v-6.18a3.54 3.54 0 0 1 2.5-1.52c.52-.06.82-.38.82-.74a.672.672 0 0 0-.68-.72zM45-9.9a4.694 4.694 0 0 0-3.44 1.66V-9a.756.756 0 0 0-.76-.74.751.751 0 0 0-.74.74v8.34a.756.756 0 0 0 .76.74.751.751 0 0 0 .74-.74v-6.4a3.73 3.73 0 0 1 2.86-1.5c1.3 0 2.16.54 2.16 2.24v5.66a.751.751 0 0 0 .74.74.756.756 0 0 0 .76-.74v-6.12c0-2.1-1.06-3.12-3.08-3.12zm9.88 0a5.009 5.009 0 0 0-3.48 1.26.653.653 0 0 0-.26.5.623.623 0 0 0 .62.62.788.788 0 0 0 .4-.12 3.562 3.562 0 0 1 2.52-.96c1.4 0 2.44.74 2.44 2.04v1.74a4.039 4.039 0 0 0-3.2-1.32 3.164 3.164 0 0 0-3.38 3.18 3.217 3.217 0 0 0 3.38 3.2 4.09 4.09 0 0 0 3.2-1.34v.44a.751.751 0 0 0 .74.74.756.756 0 0 0 .76-.74v-5.98c0-2.34-1.7-3.26-3.74-3.26zm-.42 9.06a2.165 2.165 0 0 1-2.38-2.1 2.168 2.168 0 0 1 2.38-2.12 3.235 3.235 0 0 1 2.66 1.2v1.82a3.235 3.235 0 0 1-2.66 1.2zm7.92.92a.751.751 0 0 0 .74-.74v-12.02a.751.751 0 0 0-.74-.74.756.756 0 0 0-.76.74V-.66a.756.756 0 0 0 .76.74z" class="cls-1" transform="translate(280 2191)"/>
                <rect id="_4" width="16" height="16" class="cls-4" rx="8" transform="translate(248 2175)"/>
            </g>
            <g id="Group_587" transform="translate(0 -8)">
                <path id="Path_349" d="M13.78.08a.828.828 0 0 0 .84-.82v-11.28a1.4 1.4 0 0 0-1.4-1.4 1.377 1.377 0 0 0-1.3.88L8.08-3.12l-3.82-9.42a1.377 1.377 0 0 0-1.3-.88 1.4 1.4 0 0 0-1.4 1.4V-.74a.828.828 0 0 0 .84.82.837.837 0 0 0 .82-.82V-11.1L7.62-.26a.485.485 0 0 0 .46.34.468.468 0 0 0 .46-.34l4.42-10.84V-.74a.837.837 0 0 0 .82.82zm3.34-4.92A4.79 4.79 0 0 0 22.04.24 5.476 5.476 0 0 0 25.48-.9a.625.625 0 0 0 .26-.5.606.606 0 0 0-.62-.6.657.657 0 0 0-.34.08 4.169 4.169 0 0 1-2.6.92 3.4 3.4 0 0 1-3.48-3.34h6.94c.56 0 .88-.28.88-.76a4.578 4.578 0 0 0-4.64-4.8 4.831 4.831 0 0 0-4.76 5.06zm4.74-3.82a3.131 3.131 0 0 1 3.18 3.22H18.7a3.223 3.223 0 0 1 3.16-3.22zm14.82-4.76a.751.751 0 0 0-.74.74v4.5a4.033 4.033 0 0 0-3.26-1.72c-2.54 0-4.3 2-4.3 5.08 0 3.14 1.78 5.06 4.3 5.06a4.067 4.067 0 0 0 3.26-1.68v.78a.751.751 0 0 0 .74.74.756.756 0 0 0 .76-.74v-12.02a.756.756 0 0 0-.76-.74zM33.04-1.1c-1.94 0-3.1-1.58-3.1-3.72s1.16-3.74 3.1-3.74A3.626 3.626 0 0 1 35.94-7v4.38a3.593 3.593 0 0 1-2.9 1.52zm8.14-10.52a1.007 1.007 0 0 0 1.02-1 1.024 1.024 0 0 0-1.02-1.02 1.02 1.02 0 0 0-1 1.02 1 1 0 0 0 1 1zm0 11.7a.756.756 0 0 0 .76-.74V-9a.751.751 0 0 0-.74-.74.756.756 0 0 0-.76.74v8.34a.751.751 0 0 0 .74.74zm7.3-1.36c-.2 0-.34.18-.76.18-.66 0-.98-.52-.98-1.24v-6h1.38A.683.683 0 0 0 48.8-9a.683.683 0 0 0-.68-.66h-1.38v-1.98a.751.751 0 0 0-.74-.74.756.756 0 0 0-.76.74v1.98h-1.02a.666.666 0 0 0-.66.66.666.666 0 0 0 .66.66h1.02v6.32A1.976 1.976 0 0 0 47.38.24a2.576 2.576 0 0 0 1.36-.32.566.566 0 0 0 .38-.56.609.609 0 0 0-.64-.64zm6.14-8.62a5.009 5.009 0 0 0-3.48 1.26.653.653 0 0 0-.26.5.623.623 0 0 0 .62.62.788.788 0 0 0 .4-.12 3.562 3.562 0 0 1 2.52-.96c1.4 0 2.44.74 2.44 2.04v1.74a4.039 4.039 0 0 0-3.2-1.32 3.164 3.164 0 0 0-3.38 3.18 3.217 3.217 0 0 0 3.38 3.2 4.09 4.09 0 0 0 3.2-1.34v.44a.751.751 0 0 0 .74.74.756.756 0 0 0 .76-.74v-5.98c0-2.34-1.7-3.26-3.74-3.26zM54.2-.84a2.165 2.165 0 0 1-2.38-2.1 2.168 2.168 0 0 1 2.38-2.12 3.235 3.235 0 0 1 2.66 1.2v1.82a3.235 3.235 0 0 1-2.66 1.2zm10.7-.44c-.2 0-.34.18-.76.18-.66 0-.98-.52-.98-1.24v-6h1.38a.683.683 0 0 0 .68-.66.683.683 0 0 0-.68-.66h-1.38v-1.98a.751.751 0 0 0-.74-.74.756.756 0 0 0-.76.74v1.98h-1.02a.666.666 0 0 0-.66.66.666.666 0 0 0 .66.66h1.02v6.32A1.976 1.976 0 0 0 63.8.24a2.577 2.577 0 0 0 1.36-.32.566.566 0 0 0 .38-.56.609.609 0 0 0-.64-.64zm1.78-3.56A4.79 4.79 0 0 0 71.6.24 5.477 5.477 0 0 0 75.04-.9a.625.625 0 0 0 .26-.5.606.606 0 0 0-.62-.6.657.657 0 0 0-.34.08 4.169 4.169 0 0 1-2.6.92 3.4 3.4 0 0 1-3.48-3.34h6.94c.56 0 .88-.28.88-.76a4.578 4.578 0 0 0-4.64-4.8 4.831 4.831 0 0 0-4.76 5.06zm4.74-3.82a3.131 3.131 0 0 1 3.18 3.22h-6.34a3.223 3.223 0 0 1 3.16-3.22z" class="cls-1" transform="translate(280 2129)"/>
                <rect id="_3" width="16" height="16" class="cls-5" rx="8" transform="translate(248 2113)"/>
            </g>
        </g>
        <rect id="_4-2" width="286.688" height="30" class="cls-6" rx="5" transform="translate(411.483 2017)"/>
        <rect id="_4-3" width="286.688" height="30" class="cls-6" rx="5" transform="translate(411.483 2073)"/>
        <rect id="_4-4" width="286.688" height="30" class="cls-6" rx="5" transform="translate(411.483 1965)"/>
        <rect id="_4-5" width="286.688" height="30" class="cls-6" rx="5" transform="translate(411.483 1912)"/>
        <rect id="_1-2" width="226.684" height="30" class="cls-2" rx="5" transform="translate(411.483 1912)"/>
        <rect id="_2-2" width="187.525" height="30" class="cls-3" rx="5" transform="translate(411.483 1965)"/>
        <rect id="_3-2" width="158.34" height="30" class="cls-5" rx="5" transform="translate(411.483 2017)"/>
        <rect id="tod" width="231.61" height="30" class="cls-4" rx="5" transform="translate(411.483 2073)"/>
    </g>
</svg>
