<svg xmlns="http://www.w3.org/2000/svg" width="424.265" height="191" viewBox="0 0 424.265 191">
    <defs>
        <style>
            .cls-1{fill:#4d5560}.cls-2{fill:#eee;stroke:#fa931a}.cls-2,.cls-3,.cls-4,.cls-5{stroke-linecap:round;stroke-width:5px}.cls-3,.cls-4{fill:none}.cls-3{stroke:#9c5cff}.cls-4{stroke:#ff5858}.cls-5{fill:#07dfe0;stroke:#4368ff}.cls-6{fill:#eef3fb}
        </style>
    </defs>
    <g id="Group_599" transform="translate(-753.438 -1912)">
        <g id="Group_585" transform="translate(0 140)">
            <g id="Group_583">
                <path id="Path_354" d="M12.54-1.1L7.92-12.5a1.417 1.417 0 0 0-1.34-.92 1.464 1.464 0 0 0-1.36.92L.62-1.1a1.186 1.186 0 0 0-.08.34.849.849 0 0 0 .86.84.806.806 0 0 0 .78-.54l.96-2.5H10l.96 2.5a.852.852 0 0 0 .8.54.849.849 0 0 0 .84-.86 1.8 1.8 0 0 0-.06-.32zM3.72-4.44l2.86-7.42 2.86 7.42zM15.42.08a.751.751 0 0 0 .74-.74v-12.02a.751.751 0 0 0-.74-.74.756.756 0 0 0-.76.74V-.66a.756.756 0 0 0 .76.74zm3.18-4.92A4.778 4.778 0 0 0 23.42.24a4.151 4.151 0 0 0 3.1-1.2.689.689 0 0 0 .22-.5.674.674 0 0 0-.68-.68.634.634 0 0 0-.46.18 2.735 2.735 0 0 1-2.1.86c-2.06 0-3.34-1.6-3.34-3.74s1.28-3.72 3.34-3.72a2.807 2.807 0 0 1 2.12.86.634.634 0 0 0 .44.18.674.674 0 0 0 .68-.68.726.726 0 0 0-.22-.5 4.151 4.151 0 0 0-3.1-1.2 4.772 4.772 0 0 0-4.82 5.06zM33.28.24a4.756 4.756 0 0 0 4.78-5.08 4.739 4.739 0 0 0-4.78-5.06 4.739 4.739 0 0 0-4.78 5.06A4.756 4.756 0 0 0 33.28.24zm0-1.34c-2.06 0-3.22-1.76-3.22-3.74 0-1.96 1.16-3.72 3.22-3.72s3.2 1.76 3.2 3.72c0 1.98-1.14 3.74-3.2 3.74zM47.78.08a.756.756 0 0 0 .76-.74v-6.16c0-2.1-1.06-3.08-3.08-3.08A4.8 4.8 0 0 0 42-8.26v-4.42a.751.751 0 0 0-.74-.74.756.756 0 0 0-.76.74V-.66a.756.756 0 0 0 .76.74.751.751 0 0 0 .74-.74v-6.4a3.8 3.8 0 0 1 2.86-1.5c1.3 0 2.18.5 2.18 2.2v5.7a.751.751 0 0 0 .74.74zm7.98.16a4.756 4.756 0 0 0 4.78-5.08 4.739 4.739 0 0 0-4.78-5.06 4.739 4.739 0 0 0-4.78 5.06A4.756 4.756 0 0 0 55.76.24zm0-1.34c-2.06 0-3.22-1.76-3.22-3.74 0-1.96 1.16-3.72 3.22-3.72s3.2 1.76 3.2 3.72c0 1.98-1.14 3.74-3.2 3.74zM63.74.08a.751.751 0 0 0 .74-.74v-12.02a.751.751 0 0 0-.74-.74.756.756 0 0 0-.76.74V-.66a.756.756 0 0 0 .76.74z" class="cls-1" transform="translate(789 1791)"/>
                <g id="Group_537" transform="translate(589 854)">
                    <path id="Path_124" d="M-11056.026 2781.317l14.373 14.373" class="cls-2" transform="translate(11224 -1859)"/>
                    <path id="Path_125" d="M-11056.026 2781.317l14.373 14.373" class="cls-2" transform="rotate(90 -4507.34 7471.004)"/>
                </g>
            </g>
            <g id="Group_582" transform="translate(0 -4)">
                <path id="Path_353" d="M12.68.08a1.117 1.117 0 0 0 1.1-.84l3.28-11.52a1.17 1.17 0 0 0 .04-.26.875.875 0 0 0-.88-.88.876.876 0 0 0-.84.66l-2.8 10.54-2.9-10.56a.859.859 0 0 0-.84-.64.865.865 0 0 0-.86.64L5.08-2.22 2.26-12.76a.876.876 0 0 0-.84-.66.888.888 0 0 0-.88.88 1.171 1.171 0 0 0 .04.26L3.86-.76a1.141 1.141 0 0 0 1.12.84A1.136 1.136 0 0 0 6.1-.78l2.72-9.98 2.74 9.98a1.12 1.12 0 0 0 1.12.86zm5.12-4.92A4.79 4.79 0 0 0 22.72.24 5.476 5.476 0 0 0 26.16-.9a.625.625 0 0 0 .26-.5.606.606 0 0 0-.62-.6.657.657 0 0 0-.34.08 4.169 4.169 0 0 1-2.6.92 3.4 3.4 0 0 1-3.48-3.34h6.94c.56 0 .88-.28.88-.76a4.578 4.578 0 0 0-4.64-4.8 4.831 4.831 0 0 0-4.76 5.06zm4.74-3.82a3.131 3.131 0 0 1 3.18 3.22h-6.34a3.223 3.223 0 0 1 3.16-3.22zm6.52 3.82A4.79 4.79 0 0 0 33.98.24 5.477 5.477 0 0 0 37.42-.9a.625.625 0 0 0 .26-.5.606.606 0 0 0-.62-.6.657.657 0 0 0-.34.08 4.169 4.169 0 0 1-2.6.92 3.4 3.4 0 0 1-3.48-3.34h6.94c.56 0 .88-.28.88-.76a4.578 4.578 0 0 0-4.64-4.8 4.831 4.831 0 0 0-4.76 5.06zm4.74-3.82a3.131 3.131 0 0 1 3.18 3.22h-6.34a3.223 3.223 0 0 1 3.16-3.22zm14.82-4.76a.751.751 0 0 0-.74.74v4.5a4.033 4.033 0 0 0-3.26-1.72c-2.54 0-4.3 2-4.3 5.08 0 3.14 1.78 5.06 4.3 5.06a4.067 4.067 0 0 0 3.26-1.68v.78a.751.751 0 0 0 .74.74.756.756 0 0 0 .76-.74v-12.02a.756.756 0 0 0-.76-.74zM44.98-1.1c-1.94 0-3.1-1.58-3.1-3.72s1.16-3.74 3.1-3.74A3.626 3.626 0 0 1 47.88-7v4.38a3.593 3.593 0 0 1-2.9 1.52z" class="cls-1" transform="translate(789 1850)"/>
                <g id="Group_538" transform="translate(589 913)">
                    <path id="Path_124-2" d="M-11056.026 2781.317l14.373 14.373" class="cls-3" transform="translate(11224 -1859)"/>
                    <path id="Path_125-2" d="M-11056.026 2781.317l14.373 14.373" class="cls-3" transform="rotate(90 -4507.34 7471.004)"/>
                </g>
            </g>
            <g id="Group_581" transform="translate(0 -8)">
                <path id="Path_352" d="M11.58.08A1.024 1.024 0 0 0 12.6-.94V-12.6a.828.828 0 0 0-.84-.82.837.837 0 0 0-.82.82v9.8L3.52-12.98a1.062 1.062 0 0 0-.88-.44 1.088 1.088 0 0 0-1.08 1.08v11.6a.828.828 0 0 0 .84.82.837.837 0 0 0 .82-.82v-10.02L10.74-.34a1.023 1.023 0 0 0 .84.42zm3.52-4.92A4.79 4.79 0 0 0 20.02.24 5.476 5.476 0 0 0 23.46-.9a.625.625 0 0 0 .26-.5.606.606 0 0 0-.62-.6.657.657 0 0 0-.34.08 4.169 4.169 0 0 1-2.6.92 3.4 3.4 0 0 1-3.48-3.34h6.94c.56 0 .88-.28.88-.76a4.578 4.578 0 0 0-4.64-4.8 4.831 4.831 0 0 0-4.76 5.06zm4.74-3.82a3.131 3.131 0 0 1 3.18 3.22h-6.34a3.223 3.223 0 0 1 3.16-3.22zm10.62 7.38c-.2 0-.34.18-.76.18-.66 0-.98-.52-.98-1.24v-6h1.38a.683.683 0 0 0 .68-.66.683.683 0 0 0-.68-.66h-1.38v-1.98a.751.751 0 0 0-.74-.74.756.756 0 0 0-.76.74v1.98H26.2a.666.666 0 0 0-.66.66.666.666 0 0 0 .66.66h1.02v6.32A1.976 1.976 0 0 0 29.36.24a2.576 2.576 0 0 0 1.36-.32.566.566 0 0 0 .38-.56.609.609 0 0 0-.64-.64zm6.5-12.14a3.56 3.56 0 0 0-.94-.12c-1.68 0-2.8 1.14-2.8 3.14v.74H32.2a.683.683 0 0 0-.68.66.683.683 0 0 0 .68.66h1.02v7.68a.756.756 0 0 0 .76.74.751.751 0 0 0 .74-.74v-7.68h1.38a.666.666 0 0 0 .66-.66.666.666 0 0 0-.66-.66h-1.38v-.74c0-1.22.54-1.9 1.52-1.9.24 0 .44.08.58.08a.556.556 0 0 0 .6-.6.624.624 0 0 0-.46-.6zm2.26 0a.756.756 0 0 0-.76.74V-.66a.756.756 0 0 0 .76.74.751.751 0 0 0 .74-.74v-12.02a.751.751 0 0 0-.74-.74zm4.48 1.8a1.007 1.007 0 0 0 1.02-1 1.024 1.024 0 0 0-1.02-1.02 1.02 1.02 0 0 0-1 1.02 1 1 0 0 0 1 1zm0 11.7a.756.756 0 0 0 .76-.74V-9a.751.751 0 0 0-.74-.74.756.756 0 0 0-.76.74v8.34a.751.751 0 0 0 .74.74zm11.22-1.12L51.7-5l3.02-3.58a.743.743 0 0 0 .16-.44.713.713 0 0 0-.7-.72.615.615 0 0 0-.52.24l-2.84 3.48-2.84-3.48a.6.6 0 0 0-.5-.24.73.73 0 0 0-.72.72.77.77 0 0 0 .18.44L49.96-5l-3.24 3.96a.607.607 0 0 0-.16.42.693.693 0 0 0 .7.7.726.726 0 0 0 .56-.28l3-3.78 3.02 3.82a.746.746 0 0 0 .54.24.693.693 0 0 0 .7-.7.607.607 0 0 0-.16-.42z" class="cls-1" transform="translate(789 1909)"/>
                <g id="Group_580" transform="translate(589 972)">
                    <path id="Path_124-3" d="M-11056.026 2781.317l14.373 14.373" class="cls-4" transform="translate(11224 -1859)"/>
                    <path id="Path_125-3" d="M-11056.026 2781.317l14.373 14.373" class="cls-4" transform="rotate(90 -4507.34 7471.004)"/>
                </g>
            </g>
            <g id="Group_584" transform="translate(0 -12)">
                <path id="Path_351" d="M5.7.08a.824.824 0 0 0 .82-.82v-11.12h3.58a.751.751 0 0 0 .74-.74.751.751 0 0 0-.74-.74H1.3a.751.751 0 0 0-.74.74.751.751 0 0 0 .74.74h3.56V-.74a.841.841 0 0 0 .84.82zm15.18 0a.99.99 0 0 0 .96-.7l2.6-8.12a1.013 1.013 0 0 0 .04-.26.751.751 0 0 0-.74-.74.739.739 0 0 0-.72.52L20.8-1.96l-2.36-7.2a.841.841 0 0 0-.82-.58.841.841 0 0 0-.82.58l-2.36 7.2-2.22-7.26a.739.739 0 0 0-.72-.52.738.738 0 0 0-.74.74 1 1 0 0 0 .04.24l2.6 8.14a.99.99 0 0 0 .96.7.966.966 0 0 0 .94-.7l2.32-7.14 2.32 7.14a.966.966 0 0 0 .94.7zm6.32-11.7a1.007 1.007 0 0 0 1.02-1 1.024 1.024 0 0 0-1.02-1.02 1.02 1.02 0 0 0-1 1.02 1 1 0 0 0 1 1zm0 11.7a.756.756 0 0 0 .76-.74V-9a.751.751 0 0 0-.74-.74.756.756 0 0 0-.76.74v8.34a.751.751 0 0 0 .74.74zm7.3-1.36c-.2 0-.34.18-.76.18-.66 0-.98-.52-.98-1.24v-6h1.38a.683.683 0 0 0 .68-.66.683.683 0 0 0-.68-.66h-1.38v-1.98a.751.751 0 0 0-.74-.74.756.756 0 0 0-.76.74v1.98h-1.02a.666.666 0 0 0-.66.66.666.666 0 0 0 .66.66h1.02v6.32A1.976 1.976 0 0 0 33.4.24a2.576 2.576 0 0 0 1.36-.32.566.566 0 0 0 .38-.56.609.609 0 0 0-.64-.64zm5.88 0c-.2 0-.34.18-.76.18-.66 0-.98-.52-.98-1.24v-6h1.38A.683.683 0 0 0 40.7-9a.683.683 0 0 0-.68-.66h-1.38v-1.98a.751.751 0 0 0-.74-.74.756.756 0 0 0-.76.74v1.98h-1.02a.666.666 0 0 0-.66.66.666.666 0 0 0 .66.66h1.02v6.32A1.976 1.976 0 0 0 39.28.24a2.576 2.576 0 0 0 1.36-.32.566.566 0 0 0 .38-.56.609.609 0 0 0-.64-.64zm1.78-3.56A4.79 4.79 0 0 0 47.08.24 5.476 5.476 0 0 0 50.52-.9a.625.625 0 0 0 .26-.5.606.606 0 0 0-.62-.6.657.657 0 0 0-.34.08 4.169 4.169 0 0 1-2.6.92 3.4 3.4 0 0 1-3.48-3.34h6.94c.56 0 .88-.28.88-.76a4.578 4.578 0 0 0-4.64-4.8 4.831 4.831 0 0 0-4.76 5.06zm4.74-3.82a3.131 3.131 0 0 1 3.18 3.22h-6.34a3.223 3.223 0 0 1 3.16-3.22zm11.22-1.16a1.584 1.584 0 0 0-.48.1 4.26 4.26 0 0 0-2.16 1.62V-9a.756.756 0 0 0-.76-.74.751.751 0 0 0-.74.74v8.34a.756.756 0 0 0 .76.74.751.751 0 0 0 .74-.74v-6.18a3.54 3.54 0 0 1 2.5-1.52c.52-.06.82-.38.82-.74a.672.672 0 0 0-.68-.72z" class="cls-1" transform="translate(789 1968)"/>
                <g id="Group_580-2" transform="translate(589 1031)">
                    <path id="Path_124-4" d="M-11056.026 2781.317l14.373 14.373" class="cls-5" transform="translate(11224 -1859)"/>
                    <path id="Path_125-4" d="M-11056.026 2781.317l14.373 14.373" class="cls-5" transform="rotate(90 -4507.34 7471.004)"/>
                </g>
            </g>
        </g>
        <rect id="_4" width="288.22" height="30" class="cls-6" rx="5" transform="translate(889.483 2017.544)"/>
        <rect id="_4-2" width="288.22" height="30" class="cls-6" rx="5" transform="translate(889.483 2073)"/>
        <rect id="_4-3" width="288.22" height="30" class="cls-6" rx="5" transform="translate(889.483 1964.772)"/>
        <rect id="_4-4" width="288.22" height="30" class="cls-6" rx="5" transform="translate(889.483 1912)"/>
        <g id="_1" fill="#fa931a" stroke="#fa931a" transform="translate(889.483 1912)">
            <rect width="187.684" height="30.286" stroke="none" rx="5"/>
            <rect width="186.684" height="29.286" x=".5" y=".5" fill="none" rx="4.5"/>
        </g>
        <rect id="_2" width="150.525" height="30.286" fill="#9c5cff" rx="5" transform="translate(889.483 1964.662)"/>
        <rect id="_3" width="211.34" height="30.286" fill="#ff5858" rx="5" transform="translate(889.483 2017.324)"/>
        <rect id="tod" width="181.61" height="30.286" fill="#4368ff" rx="5" transform="translate(889.483 2072.714)"/>
    </g>
</svg>
