<svg xmlns="http://www.w3.org/2000/svg" viewBox="0 0 420 167.81"><defs><style>.cls-1{fill:none;}.cls-2{fill:#d3ddeb;}.cls-3{fill:#017bff;}.cls-4{fill:#292f36;}</style></defs><g id="Layer_2" data-name="Layer 2"><g id="Layer_1-2" data-name="Layer 1"><g id="Group_3555" data-name="Group 3555"><g id="Ellipse_896" data-name="Ellipse 896"><ellipse class="cls-1" cx="21.5" cy="146.81" rx="21.5" ry="21"/><path class="cls-2" d="M21.5,167.81c-11.85,0-21.5-9.42-21.5-21s9.65-21,21.5-21a21,21,0,1,1,0,42Zm0-36a15,15,0,1,0,0,30,15,15,0,1,0,0-30Z"/></g><g id="Ellipse_897" data-name="Ellipse 897"><circle class="cls-1" cx="397" cy="51.81" r="21"/><path class="cls-2" d="M397,72.81a21,21,0,1,1,21-21A21,21,0,0,1,397,72.81Zm0-36a15,15,0,1,0,15,15A15,15,0,0,0,397,36.81Z"/></g><g id="Ellipse_898" data-name="Ellipse 898"><ellipse class="cls-1" cx="398.5" cy="146.81" rx="21.5" ry="21"/><path class="cls-2" d="M398.5,167.81a21,21,0,1,1,21.5-21A21.28,21.28,0,0,1,398.5,167.81Zm0-36a15,15,0,1,0,15.5,15A15.27,15.27,0,0,0,398.5,131.81Z"/></g><g id="Ellipse_899" data-name="Ellipse 899"><circle class="cls-1" cx="321" cy="51.81" r="21"/><path class="cls-2" d="M321,72.81a21,21,0,1,1,21-21A21,21,0,0,1,321,72.81Zm0-36a15,15,0,1,0,15,15A15,15,0,0,0,321,36.81Z"/></g><g id="Ellipse_900" data-name="Ellipse 900"><ellipse class="cls-1" cx="322.5" cy="146.81" rx="21.5" ry="21"/><path class="cls-2" d="M322.5,167.81a21,21,0,1,1,21.5-21A21.28,21.28,0,0,1,322.5,167.81Zm0-36a15,15,0,1,0,15.5,15A15.27,15.27,0,0,0,322.5,131.81Z"/></g><g id="Ellipse_901" data-name="Ellipse 901"><ellipse class="cls-1" cx="246.5" cy="51.81" rx="21.5" ry="21"/><path class="cls-2" d="M246.5,72.81a21.28,21.28,0,0,1-21.5-21,21.51,21.51,0,0,1,43,0A21.28,21.28,0,0,1,246.5,72.81Zm0-36a15.27,15.27,0,0,0-15.5,15,15.51,15.51,0,0,0,31,0A15.27,15.27,0,0,0,246.5,36.81Z"/></g><g id="Ellipse_902" data-name="Ellipse 902"><ellipse class="cls-1" cx="247.5" cy="146.81" rx="21.5" ry="21"/><path class="cls-2" d="M247.5,167.81a21,21,0,1,1,21.5-21A21.28,21.28,0,0,1,247.5,167.81Zm0-36a15,15,0,1,0,15.5,15A15.27,15.27,0,0,0,247.5,131.81Z"/></g><g id="Ellipse_903" data-name="Ellipse 903"><ellipse class="cls-1" cx="171.5" cy="51.81" rx="21.5" ry="21"/><path class="cls-2" d="M171.5,72.81c-11.85,0-21.5-9.42-21.5-21s9.65-21,21.5-21a21.28,21.28,0,0,1,21.5,21A21.28,21.28,0,0,1,171.5,72.81Zm0-36a15.27,15.27,0,0,0-15.5,15,15.51,15.51,0,0,0,31,0A15.27,15.27,0,0,0,171.5,36.81Z"/></g><g id="Ellipse_904" data-name="Ellipse 904"><ellipse class="cls-1" cx="171.5" cy="146.81" rx="21.5" ry="21"/><path class="cls-2" d="M171.5,167.81c-11.85,0-21.5-9.42-21.5-21s9.65-21,21.5-21a21,21,0,1,1,0,42Zm0-36a15,15,0,1,0,15.5,15A15.27,15.27,0,0,0,171.5,131.81Z"/></g><g id="Ellipse_905" data-name="Ellipse 905"><ellipse class="cls-1" cx="98.5" cy="51.81" rx="21.5" ry="21"/><path class="cls-2" d="M98.5,72.81c-11.85,0-21.5-9.42-21.5-21s9.65-21,21.5-21a21.28,21.28,0,0,1,21.5,21A21.28,21.28,0,0,1,98.5,72.81Zm0-36a15.27,15.27,0,0,0-15.5,15,15.51,15.51,0,0,0,31,0A15.27,15.27,0,0,0,98.5,36.81Z"/></g><g id="Ellipse_906" data-name="Ellipse 906"><ellipse class="cls-1" cx="98.5" cy="146.81" rx="21.5" ry="21"/><path class="cls-2" d="M98.5,167.81c-11.85,0-21.5-9.42-21.5-21s9.65-21,21.5-21a21,21,0,1,1,0,42Zm0-36a15,15,0,1,0,15.5,15A15.27,15.27,0,0,0,98.5,131.81Z"/></g><g id="Ellipse_907" data-name="Ellipse 907"><ellipse class="cls-1" cx="21.5" cy="51.81" rx="21.5" ry="21"/><path class="cls-2" d="M21.5,72.81C9.65,72.81,0,63.39,0,51.81s9.65-21,21.5-21a21.28,21.28,0,0,1,21.5,21A21.28,21.28,0,0,1,21.5,72.81Zm0-36A15.27,15.27,0,0,0,6,51.81a15.27,15.27,0,0,0,15.5,15,15.27,15.27,0,0,0,15.5-15A15.27,15.27,0,0,0,21.5,36.81Z"/></g><g id="Ellipse_908" data-name="Ellipse 908"><circle class="cls-1" cx="397" cy="51.81" r="21"/><path class="cls-3" d="M414.39,59.47a3,3,0,0,1-.77-.1,3,3,0,0,1-2.13-3.67A15,15,0,0,0,397,36.81a3,3,0,1,1,0-6,21,21,0,0,1,20.29,26.43A3,3,0,0,1,414.39,59.47Z"/></g><g id="Ellipse_910" data-name="Ellipse 910"><circle class="cls-1" cx="321" cy="51.81" r="21"/><path class="cls-3" d="M337.13,46.82a3,3,0,0,1-2.69-1.67A14.92,14.92,0,0,0,321,36.81a3,3,0,1,1,0-6,20.9,20.9,0,0,1,18.82,11.67,3,3,0,0,1-2.69,4.34Z"/></g><g id="Ellipse_911" data-name="Ellipse 911"><ellipse class="cls-1" cx="322.5" cy="146.81" rx="21.5" ry="21"/><path class="cls-3" d="M338.91,141.48a3,3,0,0,1-2.65-1.58,15.53,15.53,0,0,0-13.76-8.09,3,3,0,0,1,0-6,21.53,21.53,0,0,1,19.05,11.25,3,3,0,0,1-1.22,4.06A2.94,2.94,0,0,1,338.91,141.48Z"/></g><g id="Ellipse_912" data-name="Ellipse 912"><ellipse class="cls-1" cx="246.5" cy="51.81" rx="21.5" ry="21"/><path class="cls-3" d="M262.91,46.48a3,3,0,0,1-2.65-1.58,15.53,15.53,0,0,0-13.76-8.09,3,3,0,1,1,0-6,21.53,21.53,0,0,1,19.05,11.25,3,3,0,0,1-1.22,4.06A2.94,2.94,0,0,1,262.91,46.48Z"/></g><g id="Ellipse_920" data-name="Ellipse 920"><ellipse class="cls-1" cx="247.5" cy="146.81" rx="21.5" ry="21"/><path class="cls-3" d="M262.49,160.36a3,3,0,0,1-1.79-.59,3,3,0,0,1-.62-4.2,14.55,14.55,0,0,0,2.92-8.76,15.27,15.27,0,0,0-15.5-15,3,3,0,0,1,0-6,21.28,21.28,0,0,1,21.5,21,20.53,20.53,0,0,1-4.11,12.35A3,3,0,0,1,262.49,160.36Z"/></g><g id="Ellipse_913" data-name="Ellipse 913"><ellipse class="cls-1" cx="171.5" cy="51.81" rx="21.5" ry="21"/><path class="cls-3" d="M178.68,71.41a3,3,0,0,1-1.14-5.78A15,15,0,0,0,187,51.81a15.27,15.27,0,0,0-15.5-15,3,3,0,1,1,0-6,21.28,21.28,0,0,1,21.5,21,21,21,0,0,1-13.19,19.37A3,3,0,0,1,178.68,71.41Z"/></g><g id="Ellipse_914" data-name="Ellipse 914"><ellipse class="cls-1" cx="171.5" cy="146.81" rx="21.5" ry="21"/><path class="cls-3" d="M171.5,167.81c-11.85,0-21.5-9.42-21.5-21a21.08,21.08,0,0,1,19.52-20.91,3,3,0,0,1,1,.08,2.94,2.94,0,0,1,1-.17,21,21,0,1,1,0,42Zm-.73-36.09a2.88,2.88,0,0,1-.72.15,15.59,15.59,0,1,0,1.45-.06A2.92,2.92,0,0,1,170.77,131.72Z"/></g><g id="Ellipse_915" data-name="Ellipse 915"><ellipse class="cls-1" cx="98.5" cy="51.81" rx="21.5" ry="21"/><path class="cls-3" d="M98.5,72.81c-11.85,0-21.5-9.42-21.5-21a20.13,20.13,0,0,1,.52-4.59,3,3,0,0,1,5.85,1.33A14.23,14.23,0,0,0,83,51.81a15.51,15.51,0,0,0,31,0,15.27,15.27,0,0,0-15.5-15,3,3,0,1,1,0-6,21.28,21.28,0,0,1,21.5,21A21.28,21.28,0,0,1,98.5,72.81Z"/></g><g id="Ellipse_916" data-name="Ellipse 916"><ellipse class="cls-1" cx="98.5" cy="146.81" rx="21.5" ry="21"/><path class="cls-3" d="M98.5,167.81a21.49,21.49,0,0,1-20.3-14.07,3,3,0,0,1,5.65-2A15.48,15.48,0,0,0,98.5,161.81a15,15,0,1,0,0-30,3,3,0,0,1,0-6,21,21,0,1,1,0,42Z"/></g><g id="Ellipse_917" data-name="Ellipse 917"><ellipse class="cls-1" cx="21.5" cy="51.81" rx="21.5" ry="21"/><path class="cls-3" d="M39.21,60.05a3.13,3.13,0,0,1-.9-.14,3,3,0,0,1-2-3.76A14.45,14.45,0,0,0,37,51.81a15.27,15.27,0,0,0-15.5-15,3,3,0,0,1,0-6,21.28,21.28,0,0,1,21.5,21,20.47,20.47,0,0,1-.93,6.13A3,3,0,0,1,39.21,60.05Z"/></g><g id="Path_3870" data-name="Path 3870"><path class="cls-4" d="M7.72,109.17a5.49,5.49,0,0,0,3.17.9c2.84,0,4.95-1.56,4.95-4.9V96.3a1.3,1.3,0,0,0-1.3-1.3h0a1.3,1.3,0,0,0-1.28,1.3v8.82A2.45,2.45,0,0,1,11,107.78a2,2,0,0,1-.35,0A2.9,2.9,0,0,1,9,107.26a1.15,1.15,0,0,0-.62-.18,1.13,1.13,0,0,0-1.14,1.13s0,0,0,0A1.15,1.15,0,0,0,7.72,109.17Zm19.5-10.12a1.17,1.17,0,0,0-1.15,1.17v6.42A3.55,3.55,0,0,1,23.34,108c-1.3,0-2.13-.51-2.13-2.16v-5.65a1.16,1.16,0,1,0-2.31,0v6.49c0,2.18,1.12,3.36,3.41,3.36a5.12,5.12,0,0,0,3.76-1.65v.36a1.16,1.16,0,1,0,2.31,0v-8.56A1.18,1.18,0,0,0,27.22,99.05Zm5.32,10.89a1.16,1.16,0,0,0,1.14-1.16V96.17A1.18,1.18,0,0,0,32.54,95a1.19,1.19,0,0,0-1.17,1.17v12.61A1.18,1.18,0,0,0,32.54,109.94Z"/></g><g id="Path_3864" data-name="Path 3864"><path class="cls-4" d="M382.14,14.17a5.46,5.46,0,0,0,3.16.9c2.84,0,4.95-1.56,4.95-4.9V1.3A1.3,1.3,0,0,0,389,0h0a1.3,1.3,0,0,0-1.27,1.3v8.82a2.45,2.45,0,0,1-2.22,2.66h-.36a2.9,2.9,0,0,1-1.71-.52,1.14,1.14,0,0,0-1.76,1h0A1.14,1.14,0,0,0,382.14,14.17ZM401.63,4.05a1.17,1.17,0,0,0-1.14,1.17v6.42A3.58,3.58,0,0,1,397.76,13c-1.3,0-2.14-.51-2.14-2.16V5.22a1.17,1.17,0,0,0-1.14-1.17,1.19,1.19,0,0,0-1.17,1.17v6.49c0,2.18,1.13,3.37,3.41,3.37a5.23,5.23,0,0,0,3.77-1.65v.35a1.16,1.16,0,1,0,2.31,0V5.22A1.17,1.17,0,0,0,401.63,4.05Zm10.21-.13a5,5,0,0,0-3.74,1.72V5.22a1.18,1.18,0,0,0-1.17-1.17,1.17,1.17,0,0,0-1.14,1.17v8.56a1.16,1.16,0,1,0,2.31,0V7.4A3.49,3.49,0,0,1,410.83,6c1.3,0,2.13.55,2.13,2.2v5.61a1.16,1.16,0,0,0,1.14,1.16,1.18,1.18,0,0,0,1.17-1.16V7.33C415.27,5.15,414.12,3.92,411.84,3.92Z"/></g><g id="Path_3865" data-name="Path 3865"><path class="cls-4" d="M382.52,109.81h4.09c4.58,0,7.68-3,7.68-7.33s-3.1-7.34-7.68-7.34h-4.09a1.23,1.23,0,0,0-1.36,1.08,1.31,1.31,0,0,0,0,.28v12a1.23,1.23,0,0,0,1.08,1.36Zm1.21-2.27V97.4h2.88a4.76,4.76,0,0,1,5,4.45,3.31,3.31,0,0,1,0,.63,4.81,4.81,0,0,1-4.56,5.06h-3.36Zm12.32-3.05a5.34,5.34,0,0,0,5.09,5.58,3.84,3.84,0,0,0,.48,0,6.52,6.52,0,0,0,3.67-1,1,1,0,0,0,.42-.77.92.92,0,0,0-.92-.92.9.9,0,0,0-.51.13,4.92,4.92,0,0,1-2.42.7,3.23,3.23,0,0,1-3.39-2.92h6.84c.88,0,1.37-.4,1.37-1.08a5.12,5.12,0,0,0-5-5.26h-.27a5.37,5.37,0,0,0-5.39,5.35Zm5.39-3.68a2.84,2.84,0,0,1,3,2.69v.13h-6A2.93,2.93,0,0,1,401.44,100.81Zm6.87,3.68a5.33,5.33,0,0,0,5.08,5.58,2.94,2.94,0,0,0,.42,0,5,5,0,0,0,3.36-1.14,1.07,1.07,0,0,0,.38-.79,1,1,0,0,0-1.05-1h0a1,1,0,0,0-.66.25,2.89,2.89,0,0,1-1.91.68,3.24,3.24,0,0,1-3.24-3.22c0-.11,0-.22,0-.32a3.21,3.21,0,0,1,2.88-3.51h.33a2.83,2.83,0,0,1,1.92.68,1,1,0,0,0,.68.24,1,1,0,0,0,1-1h0a1.06,1.06,0,0,0-.37-.8,5,5,0,0,0-3.37-1.14,5.34,5.34,0,0,0-5.5,5.16C408.3,104.22,408.3,104.35,408.31,104.49Z"/></g><g id="Path_3863" data-name="Path 3863"><path class="cls-4" d="M316.13,14.94a1.25,1.25,0,0,0,1.24-1.24v-11a2,2,0,0,0-2-2A2,2,0,0,0,313.44,2l-3.36,8.27L306.74,2A2,2,0,0,0,304.85.68a2,2,0,0,0-2,2v11a1.26,1.26,0,0,0,1.24,1.24,1.24,1.24,0,0,0,1.22-1.24V4.21l4.16,10.29a.7.7,0,0,0,1.3,0l4.18-10.29V13.7A1.24,1.24,0,0,0,316.13,14.94Zm8.33-10.53a6.11,6.11,0,0,0-3.73,1.2.91.91,0,0,0-.38.71.89.89,0,0,0,1.38.74,4,4,0,0,1,2.37-.75c1.41,0,2.38.71,2.38,1.89V9.71a4.18,4.18,0,0,0-3.28-1.3,3.26,3.26,0,0,0-3.52,3c0,.1,0,.2,0,.31a3.38,3.38,0,0,0,3.38,3.36h.15a4.27,4.27,0,0,0,3.28-1.34v.1a1.11,1.11,0,1,0,2.21,0V8.09C328.69,5.36,326.71,4.41,324.46,4.41Zm-.4,9.14a1.93,1.93,0,0,1-2.15-1.67s0-.09,0-.14a1.93,1.93,0,0,1,2-1.84l.16,0A3,3,0,0,1,326.48,11V12.5a3,3,0,0,1-2.41,1.05Zm7.06,4.38a1,1,0,0,0,.9,1,1.72,1.72,0,0,0,.32,0,3.4,3.4,0,0,0,3.48-2.29l4.33-10.58a1.43,1.43,0,0,0,.09-.42,1.08,1.08,0,0,0-1.08-1.09h0a1.09,1.09,0,0,0-1,.69l-2.73,7-2.73-7a1.11,1.11,0,0,0-1-.69,1.09,1.09,0,0,0-1.08,1.09h0a.91.91,0,0,0,.06.4l3.61,8.91-.5,1.15a1.37,1.37,0,0,1-1.45.88h-.1a1,1,0,0,0-1.06,1Z"/></g><g id="Path_3866" data-name="Path 3866"><path class="cls-4" d="M314.26,109.94a1.52,1.52,0,0,0,1.51-1.52V96.92a1.23,1.23,0,1,0-2.46,0v8.82l-6.76-9.39a1.59,1.59,0,0,0-1.3-.67,1.61,1.61,0,0,0-1.61,1.61v11.4a1.23,1.23,0,1,0,2.45,0V99.6l7,9.71A1.48,1.48,0,0,0,314.26,109.94Zm9,.12a5.07,5.07,0,0,0,5.23-4.91,2.94,2.94,0,0,0,0-.42,5.07,5.07,0,0,0-4.81-5.32h-.42a5.07,5.07,0,0,0-5.21,4.94,2.41,2.41,0,0,0,0,.38,5.09,5.09,0,0,0,4.82,5.33Zm0-2c-1.87,0-2.92-1.58-2.92-3.38s1-3.36,2.92-3.36,2.94,1.57,2.94,3.36-1,3.38-2.94,3.38Zm15.06-8.57a1.1,1.1,0,0,0-1,.69l-2.73,7.06-2.73-7.06a1.11,1.11,0,0,0-1-.69,1.08,1.08,0,0,0-1.07,1.09h0a1.06,1.06,0,0,0,.08.4l3.19,7.86a1.7,1.7,0,0,0,1.58,1,1.67,1.67,0,0,0,1.55-1l3.19-7.84a1.43,1.43,0,0,0,.09-.42,1.08,1.08,0,0,0-1.08-1.09Z"/></g><g id="Path_3862" data-name="Path 3862"><path class="cls-4" d="M247.66,13.24,243.27,2.06a2.16,2.16,0,0,0-4,0l-4.39,11.18a1.57,1.57,0,0,0-.1.44A1.27,1.27,0,0,0,236,14.94a1.26,1.26,0,0,0,1.16-.8l.73-2h6.72l.74,2a1.23,1.23,0,0,0,1.15.8,1.27,1.27,0,0,0,1.26-1.26A1.29,1.29,0,0,0,247.66,13.24Zm-9-3.28,2.59-7.08L243.84,10Zm16.55-5.55A4,4,0,0,0,252,6.05v-.4a1.13,1.13,0,0,0-1.1-1.11,1.11,1.11,0,0,0-1.11,1.11v12a1.11,1.11,0,0,0,1.11,1.11,1.13,1.13,0,0,0,1.1-1.11V13.4a4,4,0,0,0,3.25,1.66c2.63,0,4.5-2,4.5-5.33S257.85,4.41,255.22,4.41Zm-.65,8.7a3.35,3.35,0,0,1-2.6-1.36v-4a3.3,3.3,0,0,1,2.6-1.36c1.74,0,2.86,1.41,2.86,3.36S256.31,13.11,254.57,13.11ZM266.69,4.5a1.74,1.74,0,0,0-.59.13,4.44,4.44,0,0,0-2,1.53v-.5A1.12,1.12,0,0,0,263,4.55a1.11,1.11,0,0,0-1.09,1.11v8.16a1.12,1.12,0,0,0,1.11,1.12,1.13,1.13,0,0,0,1.1-1.12V7.9a3.57,3.57,0,0,1,2.31-1.32c.75-.11,1.13-.55,1.13-1a.9.9,0,0,0-.77-1Z"/></g><g id="Path_3867" data-name="Path 3867"><path class="cls-4" d="M230.51,102.48a7.28,7.28,0,0,0,7,7.59,4.86,4.86,0,0,0,.54,0,7.27,7.27,0,0,0,7.5-7,4.86,4.86,0,0,0,0-.54,7.28,7.28,0,0,0-7-7.58H238a7.28,7.28,0,0,0-7.5,7A4.86,4.86,0,0,0,230.51,102.48Zm12.36,0c0,3-1.91,5.3-4.86,5.3s-4.86-2.28-4.86-5.3,1.89-5.3,4.86-5.3S242.87,99.45,242.87,102.48Zm4.41,2a5.33,5.33,0,0,0,5.07,5.59,3.08,3.08,0,0,0,.43,0,5,5,0,0,0,3.36-1.14,1,1,0,0,0-.67-1.83h0a1,1,0,0,0-.66.25,2.89,2.89,0,0,1-1.92.68,3.22,3.22,0,0,1-3.22-3.23c0-.1,0-.21,0-.31a3.21,3.21,0,0,1,2.88-3.51h.34a2.79,2.79,0,0,1,1.91.68,1.05,1.05,0,0,0,1.72-.79h0a1.07,1.07,0,0,0-.38-.8,5,5,0,0,0-3.36-1.14,5.33,5.33,0,0,0-5.51,5.16c0,.13,0,.27,0,.41Zm16,3.48c-.18,0-.31.07-.58.07-.66,0-1-.53-1-1.26v-5.56h1.28a1,1,0,0,0,1-1,1,1,0,0,0-1-1h-1.28V97.31a1.16,1.16,0,0,0-1.14-1.16,1.18,1.18,0,0,0-1.17,1.16v1.87h-.88a1,1,0,0,0,0,2h.88v6.14a2.45,2.45,0,0,0,2.14,2.72,2,2,0,0,0,.59,0,3.78,3.78,0,0,0,1.52-.26.87.87,0,0,0,.61-.88.93.93,0,0,0-.87-1Z"/></g><g id="Path_3861" data-name="Path 3861"><path class="cls-4" d="M172.77,14.94A1.24,1.24,0,0,0,174,13.7v-11A2,2,0,0,0,170.08,2l-3.36,8.28L163.38,2a2,2,0,0,0-3.93.76v11a1.23,1.23,0,1,0,2.46,0V4.21l4.16,10.29a.7.7,0,0,0,1.3,0l4.18-10.29V13.7A1.24,1.24,0,0,0,172.77,14.94ZM181.1,4.41a6.11,6.11,0,0,0-3.73,1.2.86.86,0,0,0-.38.71.89.89,0,0,0,.88.89,1.08,1.08,0,0,0,.5-.15,4,4,0,0,1,2.37-.76c1.41,0,2.37.72,2.37,1.89V9.71a4.18,4.18,0,0,0-3.27-1.3,3.28,3.28,0,0,0-3.52,3c0,.11,0,.21,0,.31a3.38,3.38,0,0,0,3.38,3.36h.15a4.27,4.27,0,0,0,3.28-1.34v.1a1.1,1.1,0,1,0,2.2,0V8.09C185.32,5.36,183.35,4.41,181.1,4.41Zm-.4,9.14a1.93,1.93,0,0,1-2.15-1.67s0-.09,0-.14a1.94,1.94,0,0,1,2-1.84l.15,0A2.94,2.94,0,0,1,183.11,11V12.5A2.94,2.94,0,0,1,180.7,13.55Zm12.22-9a1.74,1.74,0,0,0-.59.13,4.43,4.43,0,0,0-2,1.53v-.5a1.1,1.1,0,1,0-2.2,0v8.17a1.12,1.12,0,0,0,1.11,1.12,1.13,1.13,0,0,0,1.1-1.12V7.9a3.57,3.57,0,0,1,2.3-1.32c.76-.11,1.14-.55,1.14-1a.9.9,0,0,0-.78-1h-.13Z"/></g><g id="Path_3868" data-name="Path 3868"><path class="cls-4" d="M156.37,108.47a8.25,8.25,0,0,0,5.17,1.6c4,0,5.67-2.09,5.67-4.53,0-3.19-2.88-3.94-5.3-4.55-1.73-.44-3.23-.82-3.23-2s1-1.83,2.71-1.83a6.3,6.3,0,0,1,3.41,1,1.15,1.15,0,0,0,.68.22,1.23,1.23,0,0,0,1.21-1.21,1.16,1.16,0,0,0-.55-1,8.07,8.07,0,0,0-4.54-1.34c-3.43,0-5.57,1.87-5.57,4.29,0,3.1,2.82,3.8,5.22,4.4,1.78.46,3.34.85,3.34,2.17,0,1-.83,2-3,2a6.23,6.23,0,0,1-3.8-1.27,1.18,1.18,0,0,0-.75-.24,1.22,1.22,0,0,0-.72,2.2Zm12.5-4a5.34,5.34,0,0,0,5.08,5.58,3.84,3.84,0,0,0,.48,0,6.52,6.52,0,0,0,3.67-1,1,1,0,0,0,.42-.77.95.95,0,0,0-1.43-.79,4.89,4.89,0,0,1-2.42.7,3.22,3.22,0,0,1-3.39-2.92h6.84c.89,0,1.37-.4,1.37-1.08a5.12,5.12,0,0,0-5-5.26h-.27a5.37,5.37,0,0,0-5.39,5.35v.22Zm5.38-3.68a2.84,2.84,0,0,1,3,2.69v.13h-6A2.93,2.93,0,0,1,174.25,100.81Zm13.25-1.89a4.25,4.25,0,0,0-3.41,1.72v-.42a1.16,1.16,0,1,0-2.31,0v12.6a1.16,1.16,0,1,0,2.31,0v-4.48a4.18,4.18,0,0,0,3.41,1.73c2.75,0,4.71-2.09,4.71-5.58S190.25,98.92,187.5,98.92Zm-.68,9.11a3.52,3.52,0,0,1-2.73-1.43v-4.2a3.43,3.43,0,0,1,2.73-1.43c1.82,0,3,1.47,3,3.52s-1.17,3.54-3,3.54Z"/></g><g id="Path_3860" data-name="Path 3860"><path class="cls-4" d="M87.88,14.94A1.24,1.24,0,0,0,89.1,13.7V8.76h6a1.08,1.08,0,1,0,0-2.16h-6V3h6.17a1.1,1.1,0,0,0,1.1-1.07A1.11,1.11,0,0,0,95.27.8H87.94a1.17,1.17,0,0,0-1.29,1,.57.57,0,0,0,0,.26V13.7A1.24,1.24,0,0,0,87.88,14.94Zm9.87-5.21a5.1,5.1,0,0,0,4.86,5.33h.45a6.32,6.32,0,0,0,3.51-1,.88.88,0,0,0-.48-1.62.88.88,0,0,0-.48.12,4.63,4.63,0,0,1-2.31.68,3.09,3.09,0,0,1-3.24-2.8h6.53c.84,0,1.3-.37,1.3-1a4.87,4.87,0,0,0-4.74-5h-.26a5.13,5.13,0,0,0-5.14,5.11Zm5.15-3.51a2.72,2.72,0,0,1,2.85,2.57v.12H100A2.81,2.81,0,0,1,102.9,6.22Zm12.64-1.81a4,4,0,0,0-3.26,1.66V1.79a1.1,1.1,0,1,0-2.2,0v12a1.1,1.1,0,1,0,2.2,0v-.4a4.06,4.06,0,0,0,3.26,1.64c2.58,0,4.49-2,4.49-5.31S118.14,4.41,115.54,4.41Zm-.65,8.7a3.25,3.25,0,0,1-2.6-1.34v-4a3.31,3.31,0,0,1,2.6-1.38c1.76,0,2.87,1.41,2.87,3.38S116.65,13.11,114.89,13.11Z"/></g><g id="Path_3869" data-name="Path 3869"><path class="cls-4" d="M94.49,108.24,90.1,97.06a2.16,2.16,0,0,0-4,0l-4.39,11.18a1.29,1.29,0,0,0-.1.44,1.27,1.27,0,0,0,1.26,1.26,1.23,1.23,0,0,0,1.15-.8l.74-2h6.72l.73,2a1.24,1.24,0,0,0,1.16.8,1.28,1.28,0,0,0,1.26-1.26A1.58,1.58,0,0,0,94.49,108.24Zm-9-3.28,2.58-7.08L90.67,105Zm18.75-5.42a1.12,1.12,0,0,0-1.09,1.11v6.14a3.37,3.37,0,0,1-2.6,1.32c-1.24,0-2-.48-2-2.06v-5.4a1.1,1.1,0,1,0-2.2,0v6.2c0,2.08,1.07,3.21,3.25,3.21a4.91,4.91,0,0,0,3.59-1.57v.33a1.12,1.12,0,0,0,1.11,1.12,1.13,1.13,0,0,0,1.1-1.12v-8.17A1.12,1.12,0,0,0,104.25,99.54Zm12.2,0a1.11,1.11,0,0,0-1.11,1.11v.42a4,4,0,0,0-3.25-1.66c-2.6,0-4.5,1.93-4.5,5.21s1.91,5.21,4.5,5.21a4.11,4.11,0,0,0,3.25-1.68v1.22c0,2.08-1.55,2.75-3,2.75a4.37,4.37,0,0,1-2.6-.73.9.9,0,0,0-.52-.17.93.93,0,0,0-.93.92,1,1,0,0,0,.4.76,6,6,0,0,0,3.66,1c2.5,0,5.2-1,5.2-4.64v-8.64a1.12,1.12,0,0,0-1.1-1.11Zm-3.71,8.34c-1.75,0-2.86-1.3-2.86-3.26s1.11-3.25,2.86-3.25a3.32,3.32,0,0,1,2.6,1.36v3.78A3.3,3.3,0,0,1,112.74,107.88Z"/></g><g id="Path_3859" data-name="Path 3859"><path class="cls-4" d="M9.48,14.17a5.47,5.47,0,0,0,3.17.9c2.83,0,5-1.56,5-4.9V1.3A1.3,1.3,0,0,0,16.3,0h0A1.31,1.31,0,0,0,15,1.3v8.82a2.45,2.45,0,0,1-2.22,2.66h-.35a3,3,0,0,1-1.72-.53,1.09,1.09,0,0,0-.61-.18A1.15,1.15,0,0,0,9,13.21v0A1.14,1.14,0,0,0,9.48,14.17ZM25,3.92a6.44,6.44,0,0,0-3.91,1.25.92.92,0,0,0-.4.75.93.93,0,0,0,.92.93,1,1,0,0,0,.53-.16,4.17,4.17,0,0,1,2.49-.79c1.47,0,2.48.75,2.48,2V9.46A4.4,4.4,0,0,0,23.71,8.1,3.43,3.43,0,0,0,20,11.23c0,.11,0,.22,0,.32a3.54,3.54,0,0,0,3.54,3.53h.16a4.46,4.46,0,0,0,3.43-1.4v.11a1.16,1.16,0,1,0,2.31,0v-6C29.45,4.91,27.39,3.92,25,3.92Zm-.42,9.57a2,2,0,0,1-2.25-1.74c0-.05,0-.1,0-.15a2,2,0,0,1,2.1-1.93h.16a3.13,3.13,0,0,1,2.53,1.1v1.61A3.1,3.1,0,0,1,24.61,13.49ZM38.5,3.92a5,5,0,0,0-3.74,1.72V5.22a1.16,1.16,0,1,0-2.31,0v8.56a1.16,1.16,0,1,0,2.31,0V7.4A3.47,3.47,0,0,1,37.48,6c1.3,0,2.14.55,2.14,2.2v5.61a1.16,1.16,0,0,0,1.14,1.16,1.18,1.18,0,0,0,1.17-1.16V7.33C41.93,5.15,40.78,3.92,38.5,3.92Z"/></g></g></g></g></svg>