<svg xmlns="http://www.w3.org/2000/svg" width="420" height="167.543" viewBox="0 0 420 167.543">
    <defs>
        <style>
            .cls-1{fill:#07dfe0}.cls-3{fill:#292f36}.cls-4{fill:#f45959}.cls-6{fill:#f7bf0f}
        </style>
    </defs>
    <g id="Group_3554" transform="translate(-214 -3525.457)">
        <rect id="Rectangle_2039" width="33" height="33" class="cls-1" rx="5" transform="translate(278 3562)"/>
        <rect id="Rectangle_2040" width="32" height="33" class="cls-1" rx="5" transform="translate(408 3562)"/>
        <rect id="Rectangle_2041" width="33" height="33" class="cls-1" rx="5" transform="translate(472 3562)"/>
        <rect id="_1" width="32" height="33" class="cls-1" rx="5" transform="translate(214 3562)"/>
        <rect id="_1-2" width="32" height="33" class="cls-1" rx="5" transform="translate(343 3562)"/>
        <rect id="_1-3" width="33" height="33" class="cls-1" rx="5" transform="translate(537 3562)"/>
        <rect id="_1-4" width="32" height="33" class="cls-1" rx="5" transform="translate(602 3562)"/>
        <path id="Path_1488" fill="none" stroke="#07dfe0" stroke-width="10px" d="M1720 6888h391.323" transform="translate(-1490.028 -3309.5)"/>
        <g id="Group_3553" transform="translate(0 4)">
            <path id="Path_3855" d="M14.1-1.65l-4.6-11.7a2.281 2.281 0 0 0-2.112-1.452 2.281 2.281 0 0 0-2.108 1.448L.682-1.65a1.578 1.578 0 0 0-.11.462 1.324 1.324 0 0 0 1.32 1.32A1.3 1.3 0 0 0 3.1-.7l.77-2.112h7.04L11.682-.7a1.3 1.3 0 0 0 1.21.836 1.324 1.324 0 0 0 1.32-1.32 1.578 1.578 0 0 0-.112-.466zM4.686-5.082L7.392-12.5 10.1-5.082zM17.468.132a1.169 1.169 0 0 0 1.144-1.166V-13.64a1.169 1.169 0 0 0-1.144-1.166A1.174 1.174 0 0 0 16.3-13.64v12.606A1.174 1.174 0 0 0 17.468.132zm3.476-5.456a5.338 5.338 0 0 0 5.5 5.588A4.953 4.953 0 0 0 29.81-.88a1.049 1.049 0 0 0 .374-.792 1.038 1.038 0 0 0-1.056-1.034 1.016 1.016 0 0 0-.66.242 2.837 2.837 0 0 1-1.914.682 3.226 3.226 0 0 1-3.212-3.542 3.208 3.208 0 0 1 3.212-3.52 2.837 2.837 0 0 1 1.914.682 1.032 1.032 0 0 0 .682.242 1.033 1.033 0 0 0 1.034-1.034 1.049 1.049 0 0 0-.374-.792 4.953 4.953 0 0 0-3.366-1.144 5.332 5.332 0 0 0-5.5 5.566zM37.334.264a5.318 5.318 0 0 0 5.478-5.588 5.312 5.312 0 0 0-5.478-5.566 5.319 5.319 0 0 0-5.456 5.566A5.325 5.325 0 0 0 37.334.264zm0-2.046c-1.958 0-3.058-1.65-3.058-3.542 0-1.87 1.1-3.52 3.058-3.52 1.98 0 3.08 1.65 3.08 3.52 0 1.892-1.1 3.542-3.08 3.542zM53.482.132a1.174 1.174 0 0 0 1.166-1.166v-6.49c0-2.178-1.144-3.366-3.432-3.366a5.079 5.079 0 0 0-3.762 1.716v-4.466a1.169 1.169 0 0 0-1.144-1.166 1.174 1.174 0 0 0-1.166 1.166v12.606A1.174 1.174 0 0 0 46.31.132a1.169 1.169 0 0 0 1.144-1.166v-6.38a3.57 3.57 0 0 1 2.728-1.43c1.3 0 2.156.506 2.156 2.156v5.654A1.169 1.169 0 0 0 53.482.132zm8.954.132a5.318 5.318 0 0 0 5.478-5.588 5.312 5.312 0 0 0-5.478-5.566 5.319 5.319 0 0 0-5.456 5.566A5.325 5.325 0 0 0 62.436.264zm0-2.046c-1.958 0-3.058-1.65-3.058-3.542 0-1.87 1.1-3.52 3.058-3.52 1.98 0 3.08 1.65 3.08 3.52 0 1.892-1.1 3.542-3.08 3.542zM71.412.132a1.169 1.169 0 0 0 1.144-1.166V-13.64a1.169 1.169 0 0 0-1.144-1.166 1.174 1.174 0 0 0-1.166 1.166v12.606A1.174 1.174 0 0 0 71.412.132z" class="cls-3" transform="translate(240 3537)"/>
            <path id="Path_1492" d="M481.99 321.381l4.231-4.231a1.845 1.845 0 0 0-2.61-2.61l-4.231 4.231-4.231-4.231a1.845 1.845 0 0 0-2.61 2.61l4.231 4.231-4.231 4.231a1.845 1.845 0 1 0 2.61 2.609l4.231-4.231 4.231 4.231a1.845 1.845 0 1 0 2.61-2.609z" class="cls-1" transform="translate(-258 3210)"/>
        </g>
        <g id="Group_3549" transform="translate(-533 2644.406)">
            <path id="Path_3858" d="M-7.128.132a1.284 1.284 0 0 0 1.188-.77l5.434-12.32a1.2 1.2 0 0 0 .11-.484 1.244 1.244 0 0 0-1.232-1.232H-10.1a1.15 1.15 0 0 0-1.144 1.144 1.146 1.146 0 0 0 1.144 1.122h6.6L-8.3-1.672a1.416 1.416 0 0 0-.11.528A1.277 1.277 0 0 0-7.128.132z" class="cls-3" transform="translate(1143 896.594)"/>
            <g id="Group_1075" transform="translate(1151 881.05)">
                <path id="Path_355" d="M2.151 17.352a6.589 6.589 0 0 0 2.775 1.4.1.1 0 0 0 .1-.163c-2.189-2.118-.326-5.089.064-5.677A5.487 5.487 0 0 0 6.4 9.549c0-.163.163-.294.294-.2a4.947 4.947 0 0 1 2.318 3.265 2 2 0 0 0 .49-1.4.217.217 0 0 1 .359-.163c1.175 1.077 3.2 4.734-.065 7.608-.065.065 0 .2.065.163a7.947 7.947 0 0 0 2.739-1.339c5.322-4.179 1.861-11.591-.392-14.04a.477.477 0 0 0-.816.327 3.639 3.639 0 0 1-.98 2.514A9.884 9.884 0 0 0 5.677.047.476.476 0 0 0 4.992.5C5.057 3.541 3.1 5.729 1.4 8.243c-1.5 2.257-2.481 6.399.751 9.109z" class="cls-4" transform="translate(.001 .002)"/>
            </g>
        </g>
        <g id="Group_3552" transform="translate(-533 2742.406)">
            <path id="Path_3857" d="M-1.628-5.588h-.946v-6.974a2.253 2.253 0 0 0-2.244-2.244 2.219 2.219 0 0 0-1.87 1.034l-5.346 8.228a1.517 1.517 0 0 0-.242.77 1.451 1.451 0 0 0 1.452 1.452h5.676v2.156a1.3 1.3 0 0 0 1.3 1.3 1.3 1.3 0 0 0 1.276-1.3v-2.156h.946A1.15 1.15 0 0 0-.484-4.466a1.146 1.146 0 0 0-1.144-1.122zm-7.986 0l4.466-6.776v6.776z" class="cls-3" transform="translate(1143 897.594)"/>
            <g id="Group_1075-2" transform="translate(1154.231 882.594)">
                <path id="Path_355-2" d="M2.114 17.049a6.474 6.474 0 0 0 2.726 1.379.1.1 0 0 0 .1-.16c-2.149-2.085-.321-5 .064-5.582a5.392 5.392 0 0 0 1.283-3.3c0-.16.16-.289.289-.192A4.861 4.861 0 0 1 8.85 12.4a1.965 1.965 0 0 0 .481-1.379.214.214 0 0 1 .353-.16c1.155 1.059 3.144 4.652-.064 7.475-.064.064 0 .192.064.16a7.808 7.808 0 0 0 2.695-1.315c5.229-4.106 1.829-11.388-.385-13.794a.469.469 0 0 0-.8.321 3.576 3.576 0 0 1-.962 2.47A9.711 9.711 0 0 0 5.578.047.468.468 0 0 0 4.9.5c.064 2.983-1.861 5.133-3.529 7.6-1.471 2.212-2.433 6.286.743 8.949z" class="cls-4" transform="translate(-3.231 .002)"/>
            </g>
        </g>
        <rect id="Rectangle_2391" width="33" height="32" fill="#bed1ed" opacity="0.502" rx="4" transform="translate(278 3661)"/>
        <rect id="_1-5" width="32" height="32" class="cls-6" rx="5" transform="translate(214 3661)"/>
        <rect id="_1-6" width="32" height="32" class="cls-6" rx="5" transform="translate(343 3661)"/>
        <rect id="_1-7" width="33" height="32" class="cls-6" rx="5" transform="translate(472 3661)"/>
        <rect id="_1-8" width="33" height="32" class="cls-6" rx="5" transform="translate(537 3661)"/>
        <rect id="_1-9" width="32" height="32" class="cls-6" rx="5" transform="translate(602 3661)"/>
        <g id="Group_3550" transform="translate(214 3623.316)">
            <path id="Path_3856" d="M12.628-1.848l-2.86-4a4.12 4.12 0 0 0 3.032-4.228 4.454 4.454 0 0 0-4.8-4.6H2.926a1.23 1.23 0 0 0-1.364 1.366v12.144a1.3 1.3 0 0 0 1.3 1.3 1.3 1.3 0 0 0 1.276-1.3v-4.312h2.99l3.454 5.06a1.376 1.376 0 0 0 1.078.55 1.242 1.242 0 0 0 1.21-1.166 1.278 1.278 0 0 0-.242-.814zm-8.492-10.56h3.52a2.314 2.314 0 0 1 2.508 2.332 2.314 2.314 0 0 1-2.508 2.332h-3.52zm9.856 7.084A5.342 5.342 0 0 0 19.558.264 6.57 6.57 0 0 0 23.232-.77a.948.948 0 0 0 .418-.77.93.93 0 0 0-.924-.924.911.911 0 0 0-.506.132 4.787 4.787 0 0 1-2.42.7 3.218 3.218 0 0 1-3.388-2.926h6.842c.88 0 1.364-.4 1.364-1.078a5.116 5.116 0 0 0-5.236-5.258 5.371 5.371 0 0 0-5.39 5.57zM19.382-9a2.842 2.842 0 0 1 2.992 2.816H16.39A2.931 2.931 0 0 1 19.382-9zm11.9-1.892a6.447 6.447 0 0 0-3.916 1.254.945.945 0 0 0-.4.748.93.93 0 0 0 .924.924 1 1 0 0 0 .528-.154 4.174 4.174 0 0 1 2.492-.79c1.474 0 2.486.748 2.486 1.98v1.584a4.392 4.392 0 0 0-3.432-1.364 3.422 3.422 0 0 0-3.7 3.454 3.529 3.529 0 0 0 3.7 3.52A4.486 4.486 0 0 0 33.4-1.144v.11A1.169 1.169 0 0 0 34.54.132a1.174 1.174 0 0 0 1.166-1.166V-7.04c0-2.86-2.068-3.85-4.422-3.85zm-.418 9.57a2.014 2.014 0 0 1-2.264-1.89 2.017 2.017 0 0 1 2.266-1.914 3.111 3.111 0 0 1 2.53 1.1v1.606a3.111 3.111 0 0 1-2.53 1.1zm16.458-13.484a1.169 1.169 0 0 0-1.144 1.166v4.488a4.263 4.263 0 0 0-3.41-1.738c-2.75 0-4.73 2.156-4.73 5.588 0 3.5 2 5.566 4.73 5.566a4.347 4.347 0 0 0 3.41-1.694v.4A1.169 1.169 0 0 0 47.322.132a1.174 1.174 0 0 0 1.166-1.166V-13.64a1.174 1.174 0 0 0-1.166-1.166zM43.428-1.782c-1.826 0-2.992-1.474-2.992-3.52 0-2.068 1.166-3.542 2.992-3.542a3.491 3.491 0 0 1 2.75 1.43v4.224a3.472 3.472 0 0 1-2.75 1.408z" class="cls-3" transform="translate(26 16.684)"/>
            <rect id="_1-10" width="12" height="12" class="cls-6" rx="6" transform="translate(0 4.684)"/>
        </g>
        <path id="Path_3854" fill="none" stroke="#f7bf0f" stroke-width="10px" d="M1720 6888h260.987" transform="translate(-1359.859 -3210.5)"/>
    </g>
</svg>
