<svg xmlns="http://www.w3.org/2000/svg" width="13.592" height="16.606" viewBox="0 0 13.592 16.606">
    <path fill="#f45959" id="prefix__Path_355" d="M1.9 15.3a5.811 5.811 0 0 0 2.448 1.238.087.087 0 0 0 .086-.144c-1.929-1.872-.288-4.492.058-5.01a4.84 4.84 0 0 0 1.149-2.963c0-.144.144-.259.259-.173a4.363 4.363 0 0 1 2.044 2.88 1.764 1.764 0 0 0 .432-1.238.192.192 0 0 1 .317-.144c1.037.95 2.822 4.175-.058 6.709-.058.058 0 .173.058.144a7.008 7.008 0 0 0 2.419-1.181c4.694-3.686 1.641-10.222-.346-12.382a.421.421 0 0 0-.72.288 3.209 3.209 0 0 1-.864 2.217A8.717 8.717 0 0 0 5.007.042a.42.42 0 0 0-.6.4c.058 2.678-1.67 4.607-3.168 6.825C-.09 9.256-.954 12.913 1.9 15.3z" data-name="Path 355" transform="translate(.001 .002)"/>
</svg>
