<svg xmlns="http://www.w3.org/2000/svg" xmlns:xlink="http://www.w3.org/1999/xlink" id="Group_2765" width="257.922" height="264.53" viewBox="0 0 257.922 264.53">
    <defs>
        <linearGradient id="linear-gradient" x1=".5" x2=".5" y1="2.947" y2="3.856" gradientUnits="objectBoundingBox">
            <stop offset="0" stop-color="#ffe0c2"/>
            <stop offset=".401" stop-color="#7aaefc"/>
            <stop offset=".591" stop-color="#b8c1fc"/>
            <stop offset="1" stop-color="#d2d4d4"/>
        </linearGradient>
        <linearGradient id="linear-gradient-2" x1=".5" x2=".5" y1="-.991" y2=".09" gradientUnits="objectBoundingBox">
            <stop offset="0" stop-color="#b8a7d3"/>
            <stop offset=".401" stop-color="#ed4861"/>
            <stop offset=".501" stop-color="#f4837d"/>
            <stop offset=".591" stop-color="#feceaa"/>
            <stop offset="1" stop-color="#b7d5ea"/>
        </linearGradient>
        <linearGradient id="linear-gradient-3" x1=".691" x2=".691" y1="5.181" y2="6.444" xlink:href="#linear-gradient"/>
        <linearGradient id="linear-gradient-6" x1=".5" x2=".5" y1="2.17" y2="2.846" xlink:href="#linear-gradient"/>
        <style>
            .cls-3{fill:#fdc068}.cls-4{fill:#292f36}.cls-5{fill:url(#linear-gradient-2)}.cls-7{fill:#2b2b2b}.cls-9{fill:#4c7de0}
        </style>
    </defs>
    <path id="Path_2966" fill="#91afec" d="M342.208 174.785c34.943 17.627 36.254-5.278 63.78-1.207 14.384 2.139-19.006-19.524-19.006-19.524L359.49 148.5l-18.42 1.518z" transform="translate(-211.347 -132.29)"/>
    <g id="Group_2760" transform="translate(0 3.294)">
        <path id="Path_2967" fill="url(#linear-gradient)" d="M502.842 302.067l17.7 30.7a14.312 14.312 0 0 0 25.8 3.173l.793-1.276 23.111-44.532a15.021 15.021 0 0 0-25.597-15.732l-23.111 44.532L548.1 320.8l-26.252-31.5" transform="translate(-430.035 -213.367)"/>
        <path id="Path_2968" d="M673.05 315.057l-4.346-4.9a10.868 10.868 0 0 0-17.558 12.625l2.9 5z" class="cls-3" transform="translate(-581.271 -239.086)"/>
        <g id="Group_2750" transform="translate(0 226.918)">
            <g id="Group_2749">
                <path id="Path_2969" d="M779.249 787.941l37.357-8.693c2.828-1.69 3.415-2.656 5.174-6.381l2.1-3.967-32.114 4.9-15.414 10.45c-2.208 1.828.276 4.967 2.897 3.691z" class="cls-4" transform="translate(-775.5 -768.9)"/>
            </g>
        </g>
        <path id="Path_2970" d="M495.872 443.328c-8.9 31.079-26.561 92.479-28.872 96.55l32.114-4.864 33.7-86.477 72.714-23.491-42.254-13.246-44.187 10a30.55 30.55 0 0 0-23.215 21.528z" class="cls-5" transform="translate(-450.729 -308.061)"/>
        <path id="Path_2971" fill="url(#linear-gradient-3)" d="M434.492 314.717c-1.138-15.108 8.8-15.419 4.208-25.181-4.553-9.762-1.276-24.456 9.762-25.56 8.52-.862 9.072-1.276 12.659-1.656 11.349-1.138 22.49 8.106 20.11 19.834 0 0-3.07 4.76-2.76 8.175s8.693 7.658 9.486 18.041z" transform="translate(-321.913 -210.081)"/>
        <g id="Group_2751" transform="translate(112 86.595)">
            <path id="Path_2972" d="M574.479 380.623h.034a.5.5 0 0 0 .448-.517 22.215 22.215 0 0 1 3.277-14.212 22.059 22.059 0 0 0 1.552-3.139.48.48 0 1 0-.9-.345 22.3 22.3 0 0 1-1.518 3A23.142 23.142 0 0 0 574 380.175a.515.515 0 0 0 .479.448z" class="cls-7" transform="translate(-573.899 -362.099)"/>
        </g>
        <path id="Path_2973" d="M494.233 426.5l-36.219 17.489a24.537 24.537 0 0 0-13.867 23.629c1.794 30.183 5.416 91.41 5.623 92.755l26.73-10.142 9-80.268 46.222-36.15z" class="cls-5" transform="translate(-369.03 -317.69)"/>
        <path id="Path_2974" d="M487.294 391.3c1.311 7.968-.379 20.973-15.557 22.9l-12.314 1.207c-13.832 1.759-24.043-8.486-25.457-17.075z" class="cls-5" transform="translate(-321.456 -294.632)"/>
        <path id="Path_2975" d="M468.8 268.4l19.489-2.829s-8.141-4.07-13.591-4.07z" class="cls-7" transform="translate(-334.11 -209.606)"/>
        <g id="Group_2752" transform="translate(122.198 55.373)">
            <path id="Path_2976" fill="url(#linear-gradient-6)" d="M388.661 372.762c.759-.345 1.518-.724 2.277-1.069 2.07-.966 16.626-10.383 28.147-17.868a21.978 21.978 0 0 0 8.831-25.526c-5.864-17.178-17.971-42.945-18.627-44.118l-1.449-2.656c-.448-.793-.9-1.587-1.345-2.346a15.3 15.3 0 0 0-20.973-5.45 15.055 15.055 0 0 0-6.209 18.248c.379.931.759 1.9 1.138 2.829l1.173 2.794c.793 1.863 1.621 3.725 2.449 5.554 1.69 3.691 14.8 26.147 14.8 26.147s-21.9 21.938-22.283 22.249" transform="translate(-365.303 -271.585)"/>
            <path id="Path_2977" d="M505.119 503.3c-1.138.931-2.277 1.828-3.38 2.794l-2.208 1.863c-.724.655-1.449 1.276-2.173 1.932a11 11 0 0 0 11.521 18.311c.9-.345 1.794-.759 2.656-1.138l2.656-1.173c1-.448 1.966-.9 2.966-1.345" class="cls-3" transform="translate(-493.8 -423.372)"/>
        </g>
        <g id="Group_2753" transform="translate(67.082 232.541)">
            <path id="Path_2978" d="M599.414 813.658l37.357-17.178a4.482 4.482 0 0 0 2.139-5.9l-2.41-5.38-26.733 10.141-12.8 14.522a2.278 2.278 0 0 0 2.447 3.795z" class="cls-4" transform="translate(-596.138 -785.2)"/>
        </g>
        <g id="Group_2759" transform="translate(104.323)">
            <g id="Group_2756" transform="translate(.313 3.904)">
                <g id="Group_2754">
                    <path id="SVGID_81_" d="M534.258 161.466l9.624-1.9a9.233 9.233 0 0 0 7.244-10.8l-2.863-14.522a14.716 14.716 0 0 0-17.282-11.59 14.716 14.716 0 0 0-11.59 17.282l2.622 13.315a10.417 10.417 0 0 0 12.245 8.215z" class="cls-3" transform="translate(-519.107 -122.375)"/>
                </g>
                <g id="Group_2755" transform="translate(.802 20.153)">
                    <path id="Path_2979" d="M605.4 180.8l.621 3.173a1.654 1.654 0 0 0-.621-3.173z" class="cls-7" transform="translate(-605.4 -180.8)"/>
                </g>
            </g>
            <path id="Path_2980" d="M517.443 228.587l9.762-6.554a3.4 3.4 0 0 0 1.449-3.415L525 197.059c-1.552-3.38-16.454-.172-16.454-.172l2.484 28.251a4.369 4.369 0 0 0 6.413 3.449z" class="cls-3" transform="translate(-492.562 -166.379)"/>
            <g id="Group_2757" transform="translate(3.355 23.994)">
                <path id="Path_2981" d="M597.329 186.476a.491.491 0 0 0 .448-.31.517.517 0 0 0-.276-.621l-1.449-.517a.755.755 0 0 1-.311-.345.677.677 0 0 1 .035-.517l1.552-2.829a.479.479 0 0 0-.828-.483l-1.552 2.829a1.633 1.633 0 0 0-.138 1.276 1.48 1.48 0 0 0 .828.931l.034.034 1.483.517a.375.375 0 0 0 .174.035zm-1.483-1z" class="cls-7" transform="translate(-594.739 -180.618)"/>
            </g>
            <g id="Group_2758" transform="translate(5.819 32.583)">
                <path id="Path_2982" d="M583.85 207.925h.1a3.522 3.522 0 0 0 2.622-1.656.469.469 0 1 0-.759-.552 2.656 2.656 0 0 1-1.9 1.276 2.165 2.165 0 0 1-1.587-.724.464.464 0 0 0-.69.621 3.267 3.267 0 0 0 2.214 1.035z" class="cls-7" transform="translate(-581.517 -205.517)"/>
            </g>
            <path id="Path_2983" d="M546.5 231.032l6.037-1.932-5.485 8.106z" class="cls-7" transform="translate(-529.483 -188.382)"/>
            <circle id="Ellipse_843" cx="1.656" cy="1.656" r="1.656" class="cls-7" transform="translate(8.807 22.263)"/>
            <path id="Path_2984" d="M592.835 119.3c-.148 5.151-15.422 17.6-19.624 19.021.05.04-5.091-15.087 19.624-19.021z" class="cls-9" transform="translate(-572.8 -119.3)"/>
        </g>
        <path id="Path_2985" fill="#cacdf5" d="M666.76 265.21l8.348-2.311a2.854 2.854 0 0 0 2-3.553l-7.727-27.664a2.854 2.854 0 0 0-3.553-2l-8.348 2.311a2.854 2.854 0 0 0-2 3.553l7.727 27.664a2.892 2.892 0 0 0 3.553 2z" transform="translate(-586.496 -188.687)"/>
    </g>
    <g id="Group_2761" transform="translate(74.459 120.273)">
        <path id="Path_2986" d="M607.771 490.238a.524.524 0 0 0 .517-.483l.414-8.9a25.443 25.443 0 0 1 13.97-21.559l16.281-8.141a.562.562 0 0 0 .242-.69.549.549 0 0 0-.69-.241l-16.281 8.141a26.337 26.337 0 0 0-14.524 22.421l-.414 8.9a.506.506 0 0 0 .483.552z" class="cls-7" transform="translate(-607.284 -450.184)"/>
    </g>
    <g id="Group_2762" transform="translate(147.175 101.858)">
        <path id="Path_2987" d="M471.321 411.8a.5.5 0 0 0 .414-.759l-8.106-14a.5.5 0 0 0-.862.517l8.106 14a.59.59 0 0 0 .448.242z" class="cls-7" transform="translate(-462.696 -396.796)"/>
    </g>
    <g id="Group_2763" transform="translate(100.534 89.882)">
        <path id="Path_2988" d="M612.733 368.882a.481.481 0 0 0 .31-.1.535.535 0 0 0 .069-.724l-4.829-5.8a.515.515 0 0 0-.793.655l4.829 5.8a.717.717 0 0 0 .414.169z" class="cls-7" transform="translate(-607.38 -362.08)"/>
    </g>
    <ellipse id="Ellipse_844" cx="3.553" cy="2.622" fill="#b3b7f1" rx="3.553" ry="2.622" transform="rotate(-105.491 60.488 1.887)"/>
    <path id="Path_2989" d="M661.6 314.3s7.968-3.691 12.728 5.416l-8.175 2.415-4.553-.483z" class="cls-3" transform="translate(-586.654 -240.41)"/>
    <circle id="Ellipse_848" cx="1.311" cy="1.311" r="1.311" fill="#bfd9ff" transform="translate(15.96 208.482)"/>
    <path id="Path_2990" d="M169.717 109.887c4.829-7.52 16.178-6.864 26.423-3.553 11 3.553 16.73-1.656 23.8-3.932 12.28-3.967 24.146 6.519 32.356 7.037 8.175.517 19.11-10.245 36.288-7.451 37.081 6.071 26.733 61.02-17.73 49.81-10.141-2.553-8.8-7.278-20.973-6.588-17.247.966-28.837-11.8-45.395-5.864-16.866 6.001-43.358-16.075-34.769-29.459z" class="cls-9" transform="translate(-53.275 -101.508)"/>
    <g id="Group_2764" transform="translate(115.944 147.1)">
        <path id="Path_2991" d="M571.888 536.94a.486.486 0 0 0 .483-.379l1.828-7.968a.515.515 0 1 0-1-.242l-1.828 7.968a.514.514 0 0 0 .379.621z" class="cls-7" transform="translate(-571.356 -527.956)"/>
    </g>
</svg>
