<svg xmlns="http://www.w3.org/2000/svg" width="1415.815" height="573.809" viewBox="0 0 1415.815 573.809">
    <defs>
        <linearGradient id="linear-gradient" x1=".5" x2=".5" y1=".098" y2="1" gradientUnits="objectBoundingBox">
            <stop offset="0" stop-color="#c9e2fc"/>
            <stop offset="1" stop-color="#fff"/>
        </linearGradient>
        <style>
            .cls-2{fill:url(#linear-gradient)}
        </style>
    </defs>
    <g id="ok" opacity="0.587" transform="translate(0 -130.942)">
        <path id="Path_2505" d="M0 271.163v308.878c.1 66.953 100.152 121.19 223.495 121.159h2.279l472.382 1.373c-116.91-36.948-98.105-164.018-179.756-198.081s-43.7-164.647-168.858-185.248S247.314 214.841 213.4 191.493l-2.53-1.646C139.339 143.7 0 172.352 0 232.708z" class="cls-2" transform="translate(0 2.18)"/>
        <ellipse id="Ellipse_780" cx="6.907" cy="3.749" fill="#bfd9ff" rx="6.907" ry="3.749" transform="translate(18.577 537.172)"/>
        <path id="Path_2506" d="M1163.4 160.648v406.3c0 78.263-116.857 141.684-260.991 141.67H899.4l-551.61 1.241c136.764-43.219 153.381-225.188 311.776-257.222S765.4 284.093 893.5 271.72s151.489-76.094 171.388-109.055c21.085-34.706 98.512-35.436 98.512-2.017z" class="cls-2" transform="translate(251.295 -5.157)"/>
        <path id="Path_2507" d="M497.2 627.671c105.263 0 153.358-83.876 277.516-75.723 37.268 2.475 78.776-39.012 95.735-54.577 28.173-25.983 102.915-15.479 102.915 14.464v115.836z" class="cls-2" transform="translate(442.449 77.068)"/>
        <path id="Path_2508" d="M471.928 636.186c-134.279 0-130.062-110.614-246.973-125.264-46.728-5.865-72.029-24.548-93.638-44.963C95.394 432.069.07 445.828.07 484.914v151.272z" class="cls-2" transform="translate(.09 68.553)"/>
    </g>
</svg>
