<svg xmlns="http://www.w3.org/2000/svg" xmlns:xlink="http://www.w3.org/1999/xlink" width="367.146" height="181.397" viewBox="0 0 367.146 181.397">
    <defs>
        <linearGradient id="linear-gradient" x1=".5" x2=".5" y1="-4.266" y2="-2.42" gradientUnits="objectBoundingBox">
            <stop offset="0" stop-color="#6b9c83"/>
            <stop offset=".401" stop-color="#a6a6a4"/>
            <stop offset=".501" stop-color="#9f9fc8"/>
            <stop offset=".591" stop-color="#9fccec"/>
            <stop offset="1" stop-color="#ffe7b0"/>
        </linearGradient>
        <linearGradient id="linear-gradient-2" x1=".5" x2=".5" y1="-4.442" y2="-2.566" xlink:href="#linear-gradient"/>
        <linearGradient id="linear-gradient-3" x1=".5" x2=".5" y1="-14.127" y2="-8.059" xlink:href="#linear-gradient"/>
        <style>
            .cls-1{fill:#292f36}.cls-14{fill:#2b2b2b}.cls-3{fill:#7fb0fa}.cls-4{fill:#9fc4fb}.cls-5{fill:#ecc6fa}.cls-7{fill:#bfd9ff}.cls-8{fill:#ea7068}.cls-9{fill:#9baecb}
        </style>
    </defs>
    <g id="Group_3375" transform="translate(-515.107 -4554.37)">
        <path id="Rectangle_2324" d="M0 0H105V30H0z" class="cls-1" transform="translate(659 4704)"/>
        <g id="Group_3354" transform="translate(-183.526 187.288)">
            <g id="Rectangle_2321" fill="#2b2b2b" stroke="#707070">
                <path stroke="none" d="M0 0H50.451V29.928H0z" transform="translate(862.257 4489.723)"/>
                <path fill="none" d="M0.5 0.5H49.951V29.428H0.5z" transform="translate(862.257 4489.723)"/>
            </g>
            <g id="Group_3286" transform="translate(698.634 4367.082)">
                <path id="Rectangle_2308" d="M0 0H50.545V11.334H0z" class="cls-3" transform="translate(0 170.063)"/>
                <path id="Rectangle_2309" d="M0 0H52.277V8.255H0z" class="cls-3" transform="translate(314.375 171.433)"/>
                <path id="Rectangle_2310" d="M0 0H52.277V8.255H0z" class="cls-4" transform="translate(310.996 163.178)"/>
                <path id="Rectangle_2311" d="M0 0H52.277V10.572H0z" class="cls-3" transform="translate(314.869 152.58)"/>
                <path id="Rectangle_2312" d="M0 0H55.973V14.556H0z" class="cls-4" transform="translate(8.3 155.478)"/>
                <path id="Rectangle_2313" d="M0 0H31.045V11.104H0z" class="cls-5" transform="translate(12.493 144.604)"/>
                <path id="Rectangle_2314" fill="#f9d5ff" d="M0 0H45.804V7.812H0z" transform="translate(317.832 135.082)"/>
                <path id="Rectangle_2315" d="M0 0H7.799V27.211H0z" class="cls-5" transform="translate(348.923 125.369)"/>
                <path id="Rectangle_2316" d="M0 0H7.799V18.592H0z" class="cls-4" transform="translate(356.721 129.692)"/>
                <path id="Rectangle_2317" d="M0 0H7.799V27.211H0z" class="cls-5" transform="translate(320.822 125.369)"/>
                <path id="Rectangle_2318" d="M0 0H7.799V18.592H0z" class="cls-4" transform="translate(313.023 129.666)"/>
                <ellipse id="Ellipse_884" cx="1.625" cy="1.627" class="cls-7" rx="1.625" ry="1.627" transform="translate(39.111)"/>
                <ellipse id="Ellipse_889" cx="1.506" cy="1.508" class="cls-7" rx="1.506" ry="1.508" transform="translate(295.85 25.324)"/>
                <ellipse id="Ellipse_890" cx="1.506" cy="1.508" class="cls-7" rx="1.506" ry="1.508" transform="translate(26.233 67.201)"/>
                <g id="Group_3285" transform="translate(79.882 7.217)">
                    <g id="Group_3284">
                        <g id="Layer_2">
                            <g id="Layer_1">
                                <path id="Path_3732" d="M641.842 633.442h-42.765s20.344-17.543 27.188-18.065 27.275 9.049 27.275 9.049z" class="cls-1" transform="translate(-574.77 -460.961)"/>
                                <path id="Path_3695" d="M610.776 633.442h42.765S633.2 615.9 626.353 615.377s-27.276 9.049-27.276 9.049z" class="cls-1" transform="translate(-448.768 -460.96)"/>
                                <path id="Path_3696" d="M35.29 421.555l-12.481 2.219a10.645 10.645 0 0 1-5.67-20.417l12.513-4.835" class="cls-8" transform="translate(-7.737 -298.531)"/>
                                <path id="Path_3697" d="M87.483 258.783l30.241-13.624 37.736-30.772c6.224-5.192 9.872-1.47 15.088 4.769a14.732 14.732 0 0 1-1.859 20.711l-40.278 33.712-.88.751a9.925 9.925 0 0 1-4.6 2.156l-29.815 5.292z" class="cls-9" transform="translate(-65.535 -158.755)"/>
                                <path id="Path_3698" d="M524.774 264.6l-29.134-12.352-33.24-29.14a14.689 14.689 0 0 0-18.8 22.573l40.278 33.745.88.751a9.923 9.923 0 0 0 4.595 2.156l29.818 5.292z" class="cls-9" transform="translate(-328.353 -164.568)"/>
                                <path id="Path_3699" d="M760.388 421.665l12.481 2.219a10.645 10.645 0 0 0 5.671-20.417l-12.514-4.8" class="cls-8" transform="translate(-569.605 -298.641)"/>
                                <path id="Path_3700" fill="url(#linear-gradient)" d="M336.059 365.594s55.789 15.026 62.665 17.738q10.265 4.116 20.4 8.461l2.607 1.109a20.423 20.423 0 0 1-6.908 39.135c-10.233.555-111.156 14.145-121.551 14.667l-7.593-28.159 124.191-28-4.37 40.741-90.072-31.2z" transform="translate(-214.003 -273.865)"/>
                                <path id="Path_3702" d="M212.013 575.989l-29.035 18.881a2.8 2.8 0 0 0-1.24 2.581l.391 4.345a2.8 2.8 0 0 0 2.77 2.548h30.5z" class="cls-8" transform="translate(-136.133 -431.47)"/>
                                <path id="Path_3703" fill="url(#linear-gradient-2)" d="M118.187 396.767l-8.962 8.92-1.24.588-2.476 1.176-5.018 2.222c-1.662.751-3.357 1.437-5.051 2.156l-5.084 2.091c-6.778 2.744-13.621 5.259-20.5 7.709s-13.817 4.7-20.791 6.925q-10.461 3.284-21.019 6.272l-4.659-40.15q15.1 2.744 30.208 5.782l7.526 1.536 7.526 1.6c5.018 1.046 10.037 2.189 15.055 3.267 10.037 2.254 20.041 4.606 30.046 7.154 10.005 2.581 19.976 5.161 29.915 8.232L129.72 449 18.5 436.2a21.018 21.018 0 0 1-4.69-40.61l83.36-24.79z" transform="translate(-.009 -277.762)"/>
                                <path id="Path_3704" fill="url(#linear-gradient-3)" d="M350.154 376.628c-3.586 10.388 1.662 24.565 13.328 24.043 8.994-.392 9.646-.032 13.426-.2 11.992-.523 19.715-13.1 15.8-24.468z" transform="translate(-261.467 -281.665)"/>
                                <path id="Path_3705" d="M373.529 242.841a19.442 19.442 0 0 1-1.107-6.011c-.065-3.43 8.179-8.885 7.723-19.339-.358-8.036-9.255-19.7-23.235-19.241l-11.277.75c-12.285.425-21.8 11.434-22.127 19.992h-.032c0 .229.032.488.032.718v.229c1.043 14.245 10.917 13.361 7.43 23.553z" class="cls-9" transform="translate(-242.315 -148.499)"/>
                                <path id="Rectangle_2319" fill="#fff" d="M0 0H11.08V27.963H0z" transform="translate(104.59 53.345)"/>
                                <path id="Rectangle_2320" d="M0 0H1.01V26.199H0z" class="cls-14" transform="translate(109.412 55.109)"/>
                                <ellipse id="Ellipse_891" cx="5.768" cy="5.782" class="cls-8" rx="5.768" ry="5.782" transform="translate(118.178 15.974)"/>
                                <path id="Path_3706" d="M457.87 207.2l9.907-6.566s-4.106-2.613-11.047-2.385z" class="cls-14" transform="translate(-342.136 -148.495)"/>
                                <path id="Path_3707" d="M400.1 123.3l.261-27.277 16.391-.588 1.825 27.211a8.912 8.912 0 0 1-8.7 9.637h-.717a8.867 8.867 0 0 1-9.06-8.983z" class="cls-8" transform="translate(-299.715 -71.49)"/>
                                <path id="Path_3708" d="M414.649 150.164l14.534 6.37-.717-10.323z" class="cls-14" transform="translate(-310.613 -109.526)"/>
                                <path id="Path_3709" d="M393.42 40.638l-8.636-.032a9.324 9.324 0 0 1-9.255-8.33l-1.792-16.857A15.415 15.415 0 0 1 389.151 0a15.415 15.415 0 0 1 15.381 15.452l-1.859 16.856a9.3 9.3 0 0 1-9.253 8.33z" class="cls-8" transform="translate(-279.967)"/>
                                <path id="Path_3710" d="M431.844 76.03a.5.5 0 0 1-.293-.915l1.368-.915a.687.687 0 0 0 .228-.458.628.628 0 0 0-.2-.555 5.931 5.931 0 0 1-1.5-3.92v-.425a.489.489 0 1 1 .977 0v.425a4.963 4.963 0 0 0 1.24 3.267 1.7 1.7 0 0 1-.2 2.45l-.033.032-1.4.915c.008.069-.09.099-.187.099z" class="cls-14" transform="translate(-323.116 -51.204)"/>
                                <path id="Path_3711" d="M394.134 78.74a4.079 4.079 0 0 1-2.542-1.078.488.488 0 1 1 .62-.751 2.767 2.767 0 0 0 2.248.817 2.48 2.48 0 0 0 1.434-1.109.5.5 0 0 1 .88.488 3.26 3.26 0 0 1-2.086 1.6 3.375 3.375 0 0 1-.555.033z" class="cls-14" transform="translate(-293.194 -57.212)"/>
                                <path id="Path_3712" d="M458.987 78.535a2.515 2.515 0 0 1-.521-.065 3.366 3.366 0 0 1-2.086-1.6.5.5 0 1 1 .88-.488 2.358 2.358 0 0 0 1.434 1.109 2.884 2.884 0 0 0 2.248-.817.488.488 0 1 1 .62.751 4.035 4.035 0 0 1-2.575 1.11z" class="cls-14" transform="translate(-341.819 -57.008)"/>
                                <ellipse id="Ellipse_892" cx="5.768" cy="5.782" class="cls-8" rx="5.768" ry="5.782" transform="translate(86.927 15.974)"/>
                                <path id="Path_3713" fill="#5d5d5d" d="M403.782 95.564l-1.727 3.789a2.025 2.025 0 0 1-3.453.392l-.26-.359a6.847 6.847 0 0 0-5.475-2.744h-1.955a6.8 6.8 0 0 0-5.474 2.744l-.261.359a2.014 2.014 0 0 1-3.453-.392L380 95.564h-2.61l.977 9.9a8.249 8.249 0 0 0 8.212 7.448H397.2a8.275 8.275 0 0 0 8.212-7.448l.977-9.9z" transform="translate(-282.703 -71.586)"/>
                                <path id="Path_3714" d="M427.283 115.279a3.888 3.888 0 0 1-2.607-1.207.508.508 0 0 1 .684-.751 2.744 2.744 0 0 0 2.183.915 2.356 2.356 0 0 0 1.467-1.046.5.5 0 1 1 .847.523 3.364 3.364 0 0 1-2.183 1.535 1.6 1.6 0 0 1-.391.031z" class="cls-14" transform="translate(-318.001 -84.605)"/>
                                <path id="Path_3715" d="M346.411 347.506h-.1a.538.538 0 0 1-.391-.588c1.076-4.867.587-7.544-1.694-9.539a.51.51 0 0 1 .652-.784c3.194 2.777 2.868 6.7 2.02 10.518a.519.519 0 0 1-.489.393z" class="cls-14" transform="translate(-257.724 -252.053)"/>
                                <path id="Path_3716" d="M519.952 351.04a38.7 38.7 0 0 1-.88-3.952c-.13-.752-.456-3.462.88-4.41l9.483 10.846z" class="cls-14" transform="translate(-388.738 -256.698)"/>
                                <path id="Path_3717" d="M530.849 575.989l29.035 18.881a2.8 2.8 0 0 1 1.24 2.581l-.391 4.345a2.8 2.8 0 0 1-2.77 2.548l-41.093-1.6z" class="cls-8" transform="translate(-387.187 -431.47)"/>
                                <path id="Path_3718" d="M484.715 511.15a.52.52 0 0 1-.489-.392.485.485 0 0 1 .391-.588l28.711-6.468a.5.5 0 0 1 .2.98l-28.709 6.468z" class="cls-14" transform="translate(-362.724 -377.313)"/>
                                <path id="Path_3719" d="M321.52 511.469h-.1l-23.82-5.422a.488.488 0 1 1 .228-.948l23.821 5.423a.488.488 0 0 1 .359.588.531.531 0 0 1-.488.359z" class="cls-14" transform="translate(-222.634 -378.351)"/>
                                <path id="Path_3720" d="M672.366 663.957h-.1l-6.289-1.046a.513.513 0 0 1 .163-1.013l6.289 1.046a.521.521 0 0 1 .424.588.49.49 0 0 1-.487.425z" class="cls-14" transform="translate(-498.562 -495.82)"/>
                                <path id="Path_3721" d="M669.92 682.5h-.1l-5.442-1.013a.5.5 0 0 1 .2-.98l5.442 1.013a.509.509 0 0 1 .391.588.492.492 0 0 1-.489.392z" class="cls-14" transform="translate(-497.385 -509.758)"/>
                                <path id="Path_3722" d="M532.427 563.635a.2.2 0 0 1-.131-.032l-12.971-3.789a.5.5 0 0 1 .294-.948l12.971 3.79a.478.478 0 0 1 .326.621.489.489 0 0 1-.489.358z" class="cls-14" transform="translate(-388.765 -418.627)"/>
                                <path id="Path_3723" d="M433.662 499.069a.523.523 0 0 1-.359-.163.513.513 0 0 1 0-.719l3.259-3.234a.508.508 0 1 1 .717.719l-3.259 3.236a.414.414 0 0 1-.358.161z" class="cls-14" transform="translate(-324.477 -370.655)"/>
                                <path id="Path_3724" d="M209.974 344.9a.6.6 0 0 1-.228-.065l-3.487-1.8a.511.511 0 0 1 .456-.915l3.487 1.8a.563.563 0 0 1 .228.686.492.492 0 0 1-.456.294z" class="cls-14" transform="translate(-154.299 -256.243)"/>
                            </g>
                        </g>
                    </g>
                </g>
            </g>
        </g>
    </g>
</svg>
