<svg xmlns="http://www.w3.org/2000/svg" id="prefix__crown" width="34.117" height="28.039" viewBox="0 0 34.117 28.039">
    <defs>
        <style>
            .prefix__cls-1{fill:#ffcd45}
        </style>
    </defs>
    <path id="prefix__Path_390" d="M92.85 341.394a1.01 1.01 0 0 0 1.01 1.01h19.451a1.01 1.01 0 0 0 1.01-1.01l.277-4.585H92.555zm0 0" class="prefix__cls-1" data-name="Path 390" transform="translate(-86.387 -314.365)"/>
    <path id="prefix__Path_391" d="M34.117 5.656a3.426 3.426 0 1 0-5.533 2.7l-6.429 4.677-3.655-6.54a3.425 3.425 0 1 0-3.008.021l-3.379 6.526-6.6-4.918a3.424 3.424 0 1 0-2.9.617l3.031 11.683h23.063l2.8-11.439a3.431 3.431 0 0 0 2.61-3.327zm0 0" class="prefix__cls-1" data-name="Path 391"/>
</svg>
