<svg xmlns="http://www.w3.org/2000/svg" width="72" height="72" viewBox="0 0 72 72">
    <defs>
        <style>
            .cls-1,.cls-2{fill:#017bff}.cls-1{opacity:.1}
        </style>
    </defs>
    <g id="Group_1081" data-name="Group 1081" transform="translate(-1146 -3627)">
        <circle id="Ellipse_176" cx="36" cy="36" r="36" class="cls-1" data-name="Ellipse 176" transform="translate(1146 3627)"/>
        <path id="bxl-twitter" d="M30.168 10.374c.021.28.021.558.021.835 0 8.507-6.475 18.309-18.307 18.309A18.181 18.181 0 0 1 2 26.628a13.446 13.446 0 0 0 1.554.08 12.89 12.89 0 0 0 7.989-2.749A6.448 6.448 0 0 1 5.526 19.5a8.194 8.194 0 0 0 1.216.1 6.846 6.846 0 0 0 1.695-.219 6.433 6.433 0 0 1-5.16-6.315v-.08a6.493 6.493 0 0 0 2.907.816 6.444 6.444 0 0 1-1.994-8.6 18.3 18.3 0 0 0 13.269 6.733 7.312 7.312 0 0 1-.16-1.474 6.441 6.441 0 0 1 11.136-4.4A12.711 12.711 0 0 0 32.518 4.5a6.423 6.423 0 0 1-2.829 3.546 12.9 12.9 0 0 0 3.7-1 13.81 13.81 0 0 1-3.221 3.328z" class="cls-2" transform="translate(1163.898 3646.584)"/>
    </g>
</svg>
