<svg xmlns="http://www.w3.org/2000/svg" width="72" height="72" viewBox="0 0 72 72">
    <g>
        <g transform="translate(-1197 -5034) translate(51 1407)">
            <circle cx="36" cy="36" r="36" fill="#017bff" opacity="0.1" transform="translate(1146 3627)"/>
        </g>
        <path fill="#437bff" d="M-13.871-25.331a3.18 3.18 0 0 0 3.351-3.2 3.18 3.18 0 0 0-3.351-3.2 3.16 3.16 0 0 0-3.274 3.2 3.137 3.137 0 0 0 3.274 3.2zM-15.6-4.57h3.621a.659.659 0 0 0 .732-.693v-16.332a.659.659 0 0 0-.732-.693H-15.6a.647.647 0 0 0-.693.693v16.332a.629.629 0 0 0 .693.693zM3.847-22.635a7.168 7.168 0 0 0-6.509 3.351l-.154-2.311a.7.7 0 0 0-.732-.693h-2.2a.659.659 0 0 0-.732.693v16.332a.659.659 0 0 0 .732.693h3.621a.647.647 0 0 0 .693-.693v-8.551a4.045 4.045 0 0 1 4.126-4.276c2.311 0 3.89 1.733 3.89 4.43v8.4a.659.659 0 0 0 .732.693h3.621a.647.647 0 0 0 .693-.693v-9.09c0-5.05-3.043-8.285-7.781-8.285z" transform="translate(-1197 -5034) translate(1236.145 5087.725)"/>
    </g>
</svg>
