<svg xmlns="http://www.w3.org/2000/svg" xmlns:xlink="http://www.w3.org/1999/xlink" width="667" height="171" viewBox="0 0 667 171">
  <g id="Logo_-_White_2" data-name="Logo - White – 2" clip-path="url(#clip-Logo_-_White_2)">
    <g id="Group_982" data-name="Group 982" transform="translate(-63.322 -48.896)">
      <g id="Group_980" data-name="Group 980" transform="translate(64.322 48.896)">
        <g id="Group_978" data-name="Group 978" transform="translate(0)">
          <circle id="Ellipse_174" data-name="Ellipse 174" cx="85.5" cy="85.5" r="85.5" fill="#fff"/>
        </g>
        <g id="Group_979" data-name="Group 979" transform="translate(48.703 27.177)">
          <path id="Path_309" data-name="Path 309" d="M171.287,188.741A41.585,41.585,0,0,1,160.9,106.9c3.527-7.659,10.059-14.654,19.491-20.871a3.9,3.9,0,0,1,5.492,1.259h0a3.9,3.9,0,0,1-1.21,5.249q-9.288,6.118-14.087,13.07.35-.006.7-.006a37.511,37.511,0,0,1,9.263,1.3c8.432,2.49,14.045,9.145,14.3,16.955.013.424.013.851,0,1.27a18.208,18.208,0,0,1-27.055,15.236,17.72,17.72,0,0,1-5.215-4.487,18.307,18.307,0,0,1-2.875-5.112,30.838,30.838,0,0,1-1.514-14.752,33.793,33.793,0,1,0,29.312,60.8,3.873,3.873,0,0,1,5.035,1.226h0a3.911,3.911,0,0,1-1.377,5.655,41.377,41.377,0,0,1-19.369,5.045C171.621,188.74,171.453,188.741,171.287,188.741ZM166.639,113.7a23.067,23.067,0,0,0,.378,14.38,10.526,10.526,0,0,0,1.655,2.939,9.979,9.979,0,0,0,2.916,2.536,10.416,10.416,0,0,0,15.47-8.713c.009-.243.01-.491,0-.737-.174-5.335-4.805-8.578-8.718-9.734a29.524,29.524,0,0,0-7.057-.984A34.433,34.433,0,0,0,166.639,113.7Z" transform="translate(-129.713 -85.385)" fill="#017bff"/>
        </g>
      </g>
      <g id="Group_981" data-name="Group 981" transform="translate(291.36 92.177)">
        <path id="Path_310" data-name="Path 310" d="M369.153,150.258c0-23.565,17.211-41.7,43.2-41.7,12.475,0,20.792,3.927,25.181,6.7a2.1,2.1,0,0,1,.693,3l-4.967,8.894a1.78,1.78,0,0,1-2.888.693,34.222,34.222,0,0,0-17.1-4.389c-16.749,0-27.722,10.511-27.722,26.682s10.858,26.8,27.722,26.8a34.409,34.409,0,0,0,17.1-4.274,1.9,1.9,0,0,1,2.888.693l4.967,8.9a2.091,2.091,0,0,1-.924,3.118c-3.465,2.31-11.782,6.469-24.95,6.469C386.248,191.841,369.153,173.706,369.153,150.258Z" transform="translate(-369.153 -107.403)" fill="#fff"/>
        <path id="Path_311" data-name="Path 311" d="M469.5,173.852c0-15.709,12.822-27.607,28.763-27.607s28.762,11.9,28.762,27.607-12.822,27.607-28.762,27.607S469.5,189.562,469.5,173.852Zm42.277,0a13.519,13.519,0,1,0-13.514,13.862C506,187.714,511.776,181.592,511.776,173.852Z" transform="translate(-394.761 -117.021)" fill="#fff"/>
        <path id="Path_312" data-name="Path 312" d="M616.224,171.08v27.26a1.941,1.941,0,0,1-2.079,2.079H603.287a1.975,1.975,0,0,1-2.195-2.079V173.159c0-8.086-4.736-13.284-11.667-13.284-7.624,0-12.36,5.774-12.36,12.821V198.34a1.941,1.941,0,0,1-2.079,2.079H564.128a1.975,1.975,0,0,1-2.194-2.079V149.363a1.975,1.975,0,0,1,2.194-2.079h6.584a2.1,2.1,0,0,1,2.195,2.079l.463,6.93c3.118-5.544,9.818-10.049,19.521-10.049C607.1,146.245,616.224,155.948,616.224,171.08Z" transform="translate(-418.351 -117.021)" fill="#fff"/>
        <path id="Path_313" data-name="Path 313" d="M655.89,188.326V149.977h-7.855a2.006,2.006,0,0,1-2.195-2.195V139.35a1.975,1.975,0,0,1,2.195-2.079h7.855v-6.237c0-14.786,8.664-24.027,23.68-24.027a24.233,24.233,0,0,1,12.244,3,2.007,2.007,0,0,1,.808,2.888l-3.811,7.738c-.577,1.156-1.618,1.387-2.888.925a13.838,13.838,0,0,0-4.62-.809c-5.2,0-10.28,3.118-10.28,11.089v5.429h13.861a1.941,1.941,0,0,1,2.08,2.079v8.433a1.975,1.975,0,0,1-2.08,2.195H671.022v38.349a1.941,1.941,0,0,1-2.079,2.079H658.084A1.975,1.975,0,0,1,655.89,188.326Z" transform="translate(-439.763 -107.007)" fill="#fff"/>
        <path id="Path_314" data-name="Path 314" d="M761.782,175.931a2,2,0,0,1-2.079,2.079H722.854c1.733,6.238,7.624,10.743,15.71,10.743a19.965,19.965,0,0,0,12.36-4.043c1.154-.809,2.194-.693,2.887.578l4.043,7.161a2.073,2.073,0,0,1-.463,3c-3.58,2.773-10.049,6.007-20.445,6.007-16.865,0-29.225-12.013-29.225-27.607,0-15.478,11.435-27.607,27.722-27.607,16.056,0,26.452,11.782,26.452,27.722A11.21,11.21,0,0,1,761.782,175.931Zm-38.928-7.624h24.72l-.116-.346a11.285,11.285,0,0,0-11.436-9.7C729.324,158.258,724.472,161.839,722.854,168.307Z" transform="translate(-455.556 -117.021)" fill="#fff"/>
        <path id="Path_315" data-name="Path 315" d="M797.872,174.885V154.094h-8.663a1.922,1.922,0,0,1-2.08-2.195v-8.433a1.886,1.886,0,0,1,2.08-2.079h9.125V125.215a1.886,1.886,0,0,1,2.079-2.079h10.4A1.975,1.975,0,0,1,813,125.215v16.171h17.558a1.975,1.975,0,0,1,2.2,2.079V151.9a2.006,2.006,0,0,1-2.2,2.195H813v19.29c0,6.238,3.928,8.548,9.357,8.548a16.216,16.216,0,0,0,6.815-1.732c1.271-.693,2.31-.462,2.888.809l3.465,7.508c.578,1.271.232,2.079-.924,3-1.155.809-6.353,4.043-15.71,4.043C805.842,195.562,797.872,188.169,797.872,174.885Z" transform="translate(-475.821 -111.123)" fill="#fff"/>
        <path id="Path_316" data-name="Path 316" d="M867.2,174.885V154.094h-8.664a1.922,1.922,0,0,1-2.08-2.195v-8.433a1.886,1.886,0,0,1,2.08-2.079h9.125V125.215a1.886,1.886,0,0,1,2.079-2.079h10.4a1.975,1.975,0,0,1,2.194,2.079v16.171h17.558a1.975,1.975,0,0,1,2.2,2.079V151.9a2.006,2.006,0,0,1-2.2,2.195H882.328v19.29c0,6.238,3.928,8.548,9.357,8.548A16.216,16.216,0,0,0,898.5,180.2c1.271-.693,2.31-.462,2.887.809l3.466,7.508c.578,1.271.231,2.079-.924,3-1.154.809-6.353,4.043-15.709,4.043C875.167,195.562,867.2,188.169,867.2,174.885Z" transform="translate(-493.512 -111.123)" fill="#fff"/>
        <path id="Path_317" data-name="Path 317" d="M929.656,119.231c0-5.66,4.275-9.472,9.819-9.588,5.66,0,10.05,3.928,10.05,9.588s-4.39,9.587-10.05,9.587C933.93,128.818,929.656,124.891,929.656,119.231ZM932.2,189V140.023a1.941,1.941,0,0,1,2.08-2.079h10.858a1.975,1.975,0,0,1,2.2,2.079V189a1.975,1.975,0,0,1-2.2,2.079H934.277A1.887,1.887,0,0,1,932.2,189Z" transform="translate(-512.193 -107.68)" fill="#fff"/>
      </g>
    </g>
  </g>
</svg>
